<svg width="1012" height="212" viewBox="0 0 1012 212" fill="none" xmlns="http://www.w3.org/2000/svg">
<path d="M391.805 163.276C547.955 163.276 526.944 214.753 501.548 210.67C459.842 203.966 449.845 92.2371 672.466 138.075C672.466 138.075 784.115 160.596 891.251 148.885C998.399 137.174 1011 91.231 1011 91.231" stroke="white" stroke-linecap="round" stroke-linejoin="round"/>
<path d="M554.229 141.246C532.025 142.755 514.954 149.014 503.484 159.871" stroke="white" stroke-linecap="round" stroke-linejoin="round"/>
<path d="M169.369 163.276H122.798H81.0686C52.7967 163.276 21.4147 156.291 1 143.036" stroke="white" stroke-linecap="round" stroke-linejoin="round"/>
<path d="M278.563 163.276L274.588 148.71C274.401 148.09 273.805 147.715 273.161 147.797C269.315 148.312 265.257 148.581 261.013 148.581C252.723 148.581 244.738 147.552 237.523 145.458" stroke="white" stroke-linecap="round" stroke-linejoin="round"/>
<path d="M303.632 79.8945C307.818 83.0534 311.291 86.6568 313.395 90.8802C316.213 96.5544 318.084 104.288 333.003 105.738C345.479 106.943 334.301 120.269 329.998 124.609C329.157 125.463 328.069 126.013 326.877 126.189C323.462 126.715 315.664 128.248 309.081 132.027C305.129 134.296 301.949 137.701 299.809 141.726C295.869 149.143 293.893 159.204 293.086 163.276" stroke="white" stroke-linecap="round" stroke-linejoin="round"/>
<path d="M278.166 79.8949C276.763 69.3889 278.833 51.6878 310.343 56.2622C310.343 56.2622 298.873 65.0952 294.524 83.1824" stroke="white" stroke-linecap="round" stroke-linejoin="round"/>
<path d="M225.665 163.276C224.729 157.952 221.935 143.387 213.458 131.734C202.876 117.192 205.659 105.305 205.659 105.305C196.855 104.018 188.179 91.4884 193.452 81.6961C195.113 88.2828 202.105 93.0327 208.769 93.1146C216.673 77.4492 237.778 67.7153 261.034 67.7153C264.483 67.7153 267.803 67.8791 270.972 68.195" stroke="white" stroke-linecap="round" stroke-linejoin="round"/>
<path d="M241.921 153.542L240.016 163.276" stroke="white" stroke-linecap="round" stroke-linejoin="round"/>
<path d="M310.344 66.8965C313.664 68.1015 317.476 70.4531 321.837 74.3607C321.837 74.3607 317.71 74.6415 312.144 77.0866" stroke="white" stroke-linecap="round" stroke-linejoin="round"/>
<path d="M213.719 59.4327L215.426 57.7246" stroke="white" stroke-linecap="round" stroke-linejoin="round"/>
<path d="M222.941 50.2135L224.649 48.4937" stroke="white" stroke-linecap="round" stroke-linejoin="round"/>
<path d="M224.649 59.4327L222.941 57.7246" stroke="white" stroke-linecap="round" stroke-linejoin="round"/>
<path d="M215.426 50.2135L213.719 48.4937" stroke="white" stroke-linecap="round" stroke-linejoin="round"/>
<path d="M252.373 39.6487L251.906 39.1924" stroke="white" stroke-linecap="round" stroke-linejoin="round"/>
<path d="M258.92 46.2004L258.453 45.7441" stroke="white" stroke-linecap="round" stroke-linejoin="round"/>
<path d="M252.373 45.7441L251.906 46.2004" stroke="white" stroke-linecap="round" stroke-linejoin="round"/>
<path d="M258.92 39.1924L258.453 39.6487" stroke="white" stroke-linecap="round" stroke-linejoin="round"/>
<path d="M245.262 126.388L277.731 93.8984" stroke="white" stroke-linecap="round" stroke-linejoin="round"/>
<path d="M254.055 102.698C256.525 100.226 256.525 96.2189 254.055 93.7472C251.585 91.2754 247.58 91.2754 245.11 93.7472C242.639 96.2189 242.639 100.226 245.11 102.698C247.58 105.17 251.585 105.17 254.055 102.698Z" stroke="white" stroke-linecap="round" stroke-linejoin="round"/>
<path d="M273.408 128.388C276.901 128.388 279.733 125.554 279.733 122.059C279.733 118.563 276.901 115.729 273.408 115.729C269.914 115.729 267.082 118.563 267.082 122.059C267.082 125.554 269.914 128.388 273.408 128.388Z" stroke="white" stroke-linecap="round" stroke-linejoin="round"/>
<path d="M354.669 108.909L352.845 108.101C352.494 107.949 352.494 107.446 352.845 107.294L354.669 106.487C355.967 105.914 356.996 104.872 357.569 103.585L358.376 101.76C358.528 101.409 359.03 101.409 359.182 101.76L359.989 103.585C360.562 104.884 361.603 105.914 362.889 106.487L364.713 107.294C365.064 107.446 365.064 107.949 364.713 108.101L362.889 108.909C361.591 109.482 360.562 110.523 359.989 111.81L359.182 113.635C359.03 113.986 358.528 113.986 358.376 113.635L357.569 111.81C356.996 110.511 355.955 109.482 354.669 108.909Z" stroke="white" stroke-linecap="round" stroke-linejoin="round"/>
<path d="M379.013 145.2H350.121" stroke="white" stroke-linecap="round" stroke-linejoin="round"/>
<path d="M369.271 138.11H356.258" stroke="white" stroke-linecap="round" stroke-linejoin="round"/>
<path d="M364.723 50.9854L365.763 52.0149" stroke="white" stroke-linecap="round" stroke-linejoin="round"/>
<path d="M370.312 56.5664L371.341 57.6076" stroke="white" stroke-linecap="round" stroke-linejoin="round"/>
<path d="M364.723 57.6076L365.763 56.5664" stroke="white" stroke-linecap="round" stroke-linejoin="round"/>
<path d="M370.312 52.0149L371.341 50.9854" stroke="white" stroke-linecap="round" stroke-linejoin="round"/>
<path d="M352.633 69.9151L352.913 69.6343" stroke="white" stroke-linecap="round" stroke-linejoin="round"/>
<path d="M348.566 73.9746L348.847 73.6938" stroke="white" stroke-linecap="round" stroke-linejoin="round"/>
<path d="M348.847 69.9151L348.566 69.6343" stroke="white" stroke-linecap="round" stroke-linejoin="round"/>
<path d="M352.913 73.9746L352.633 73.6938" stroke="white" stroke-linecap="round" stroke-linejoin="round"/>
<path d="M293.086 163.275H394.797" stroke="white" stroke-linecap="round" stroke-linejoin="round"/>
<path d="M240.016 163.275H278.565" stroke="white" stroke-linecap="round" stroke-linejoin="round"/>
<path d="M172.363 163.275H225.668" stroke="white" stroke-linecap="round" stroke-linejoin="round"/>
<path d="M156.94 86.0366H133.707" stroke="white" stroke-linecap="round" stroke-linejoin="round"/>
<path d="M176.428 86.0366H163.777" stroke="white" stroke-linecap="round" stroke-linejoin="round"/>
<path d="M169.299 93.5361H147.938" stroke="white" stroke-linecap="round" stroke-linejoin="round"/>
<path d="M166.823 27.5162L164.017 26.2761C163.479 26.0421 163.479 25.2817 164.017 25.036L166.823 23.7959C168.81 22.9184 170.401 21.3273 171.289 19.3267L172.529 16.5189C172.762 15.9807 173.522 15.9807 173.768 16.5189L175.007 19.3267C175.884 21.3156 177.474 22.9067 179.474 23.7959L182.28 25.036C182.818 25.27 182.818 26.0304 182.28 26.2761L179.474 27.5162C177.486 28.3937 175.896 29.9848 175.007 31.9854L173.768 34.7932C173.534 35.3314 172.774 35.3314 172.529 34.7932L171.289 31.9854C170.412 29.9965 168.822 28.4054 166.823 27.5162Z" stroke="white" stroke-linecap="round" stroke-linejoin="round"/>
<path d="M197.466 8.41154L195.642 7.60428C195.291 7.45219 195.291 6.94911 195.642 6.79702L197.466 5.98977C198.764 5.41651 199.793 4.37526 200.366 3.08833L201.172 1.26324C201.324 0.912255 201.827 0.912255 201.979 1.26324L202.786 3.08833C203.359 4.38696 204.399 5.41651 205.686 5.98977L207.51 6.79702C207.86 6.94911 207.86 7.45219 207.51 7.60428L205.686 8.41154C204.388 8.98481 203.359 10.026 202.786 11.313L201.979 13.1381C201.827 13.4891 201.324 13.4891 201.172 13.1381L200.366 11.313C199.793 10.0143 198.752 8.98481 197.466 8.41154Z" stroke="white" stroke-linecap="round" stroke-linejoin="round"/>
<path d="M157.559 123.077L158.599 124.118" stroke="white" stroke-linecap="round" stroke-linejoin="round"/>
<path d="M163.148 128.669L164.177 129.698" stroke="white" stroke-linecap="round" stroke-linejoin="round"/>
<path d="M157.559 129.698L158.599 128.669" stroke="white" stroke-linecap="round" stroke-linejoin="round"/>
<path d="M163.148 124.118L164.177 123.077" stroke="white" stroke-linecap="round" stroke-linejoin="round"/>
<path d="M553.44 62.7788C557.659 72.3273 553.337 83.4778 543.789 87.6968C534.24 91.9159 523.09 87.5937 518.871 78.0453C517.594 75.1506 517.102 72.1052 517.3 69.1551" stroke="white" stroke-linecap="round" stroke-linejoin="round"/>
<path d="M517.645 66.6415C518.826 60.8521 522.704 55.7052 528.525 53.1277C537.249 49.2734 547.321 52.5488 552.206 60.4318" stroke="white" stroke-linecap="round" stroke-linejoin="round"/>
<path d="M529.206 72.8667C529.38 73.176 529.579 73.62 529.816 73.9849L534.662 71.8436C532.156 66.768 532.695 62.6917 536.296 59.5115C537.358 58.5757 539.206 57.5368 540.031 57.1561C537.771 56.5692 535.4 56.7833 533.179 57.7667C527.707 60.1856 526.034 67.0614 529.206 72.8667Z" stroke="white" stroke-miterlimit="10"/>
<path d="M538.423 71.1536C539.565 75.3648 538.605 78.9653 535.393 81.6775C534.211 82.6768 532.927 83.5333 532.34 83.8109C534.362 84.2471 536.583 84.1916 538.637 83.2795C543.696 81.0193 545.838 74.8096 543.855 70.313C543.704 69.964 543.403 69.3613 543.213 69.0361L538.423 71.1536Z" stroke="white" stroke-miterlimit="10"/>
<path d="M539.712 68.4734C541.235 67.7993 541.925 66.0229 541.251 64.5002C540.577 62.9775 538.8 62.2875 537.278 62.9616C535.755 63.6357 535.065 65.4122 535.739 66.9348C536.413 68.4575 538.19 69.1475 539.712 68.4734Z" stroke="white" stroke-miterlimit="10"/>
<path d="M558.229 77.2766C559.712 72.0107 559.664 67.5378 558.094 63.9849" stroke="white" stroke-linecap="round" stroke-linejoin="round"/>
<path d="M512.973 72.3911C513.48 77.8394 515.122 82.003 517.858 84.755" stroke="white" stroke-linecap="round" stroke-linejoin="round"/>
<path d="M359.226 22.9751C360.741 33.3008 353.595 42.8968 343.269 44.4036C337.44 45.2602 331.841 43.3489 327.805 39.6691" stroke="white" stroke-linecap="round" stroke-linejoin="round"/>
<path d="M350.566 9.70752C354.706 12.3088 357.823 16.4882 358.965 21.5479" stroke="white" stroke-linecap="round" stroke-linejoin="round"/>
<path d="M326.562 38.44C324.111 35.7515 322.406 32.3255 321.835 28.4554C320.321 18.1297 327.466 8.53364 337.792 7.02682C341.598 6.47167 345.31 7.09026 348.554 8.61294" stroke="white" stroke-linecap="round" stroke-linejoin="round"/>
<path d="M333.186 26.2271C333.265 26.576 333.344 27.0518 333.471 27.4722L338.713 26.7029C337.651 21.1435 339.268 17.3606 343.583 15.2511C344.859 14.6325 346.913 14.1249 347.818 13.9822C345.795 12.8084 343.456 12.3881 341.053 12.7371C335.136 13.6015 331.687 19.7795 333.186 26.2271Z" stroke="white" stroke-miterlimit="10"/>
<path d="M342.52 27.0278C342.489 31.3897 340.609 34.6015 336.794 36.3621C335.391 37.0124 333.924 37.4883 333.281 37.5993C335.113 38.5589 337.27 39.1062 339.491 38.7731C344.971 37.9404 348.69 32.5396 347.985 27.6702C347.929 27.2975 347.802 26.6313 347.707 26.2744L342.528 27.0357L342.52 27.0278Z" stroke="white" stroke-miterlimit="10"/>
<path d="M344.477 24.7918C346.127 24.5538 347.261 23.0232 347.023 21.3737C346.785 19.7241 345.254 18.59 343.605 18.8279C341.955 19.0658 340.821 20.5964 341.059 22.246C341.297 23.8956 342.827 25.0297 344.477 24.7918Z" stroke="white" stroke-miterlimit="10"/>
<path d="M357.27 42.2547C361.013 38.2656 363.043 34.2765 363.289 30.3984" stroke="white" stroke-linecap="round" stroke-linejoin="round"/>
<path d="M322.04 12.063C318.71 16.409 317.1 20.5725 317.234 24.4585" stroke="white" stroke-linecap="round" stroke-linejoin="round"/>
<path d="M448.867 105.549C444.553 110.006 438.137 112.251 431.602 110.958C427.351 110.117 423.719 107.905 421.07 104.883" stroke="white" stroke-linecap="round" stroke-linejoin="round"/>
<path d="M418.339 100.807C416.555 97.1984 415.897 93.0031 416.737 88.7444C418.768 78.5059 428.713 71.8601 438.943 73.8824C449.181 75.9126 455.827 85.8576 453.805 96.0881C453.313 98.5704 452.354 100.846 451.037 102.837" stroke="white" stroke-linecap="round" stroke-linejoin="round"/>
<path d="M428.174 90.4416C428.134 90.7985 428.047 91.2743 428.031 91.7105L433.226 92.7415C434.09 87.1504 436.874 84.1209 441.648 83.5816C443.06 83.423 445.161 83.6292 446.058 83.8037C444.543 82.0193 442.481 80.8376 440.102 80.3697C434.233 79.2039 428.919 83.875 428.174 90.4495V90.4416Z" stroke="white" stroke-miterlimit="10"/>
<path d="M436.71 94.3281C435.227 98.4283 432.38 100.831 428.184 101.204C426.646 101.347 425.099 101.307 424.465 101.196C425.876 102.719 427.724 103.948 429.921 104.376C435.362 105.431 440.683 101.577 441.635 96.7549C441.706 96.3822 441.817 95.716 441.841 95.3432L436.71 94.3281Z" stroke="white" stroke-miterlimit="10"/>
<path d="M439.301 92.8761C440.935 93.2013 442.521 92.1386 442.846 90.5049C443.171 88.8712 442.108 87.285 440.475 86.9599C438.841 86.6347 437.255 87.6975 436.93 89.3312C436.604 90.9649 437.667 92.551 439.301 92.8761Z" stroke="white" stroke-miterlimit="10"/>
<path d="M457.478 98.5466C458.881 93.2569 458.77 88.784 457.152 85.2549" stroke="white" stroke-linecap="round" stroke-linejoin="round"/>
<path d="M412.137 88.689C411.273 94.0897 411.828 98.5309 413.795 101.878" stroke="white" stroke-linecap="round" stroke-linejoin="round"/>
</svg>
