<svg width="75" height="84" viewBox="0 0 75 84" fill="none" xmlns="http://www.w3.org/2000/svg">
<path d="M43.8906 68.9348C43.8906 72.9304 45.4778 76.7623 48.3031 79.5876C51.1284 82.4128 54.9603 84.0001 58.9558 84.0001C62.9514 84.0001 66.7833 82.4128 69.6086 79.5876C72.4338 76.7623 74.0211 72.9304 74.0211 68.9348C74.0211 64.9393 72.4338 61.1074 69.6086 58.2821C66.7833 55.4569 62.9514 53.8696 58.9558 53.8696C54.9603 53.8696 51.1284 55.4569 48.3031 58.2821C45.4778 61.1074 43.8906 64.9393 43.8906 68.9348ZM54.0596 70.2531C53.5889 69.6293 53.7183 68.7465 54.3421 68.2757C54.9659 67.805 55.8486 67.9344 56.3194 68.5582L57.9083 70.6768L61.5216 64.892C61.9336 64.2329 62.8045 64.0269 63.4695 64.4447C64.1345 64.8625 64.3346 65.7276 63.9168 66.3926L59.2089 73.9252C58.9617 74.3195 58.538 74.5666 58.0731 74.5902C57.6082 74.6137 57.161 74.4019 56.8844 74.0252L54.0596 70.2589V70.2531Z" fill="#147160"/>
<path d="M63.4709 64.4389C64.13 64.8509 64.336 65.7218 63.9181 66.3868L59.2103 73.9194C58.9631 74.3137 58.5394 74.5609 58.0745 74.5844C57.6096 74.608 57.1623 74.3961 56.8858 74.0195L54.061 70.2532C53.5902 69.6294 53.7197 68.7466 54.3435 68.2759C54.9673 67.8051 55.85 67.9345 56.3208 68.5583L57.9097 70.6769L61.523 64.8921C61.935 64.233 62.8059 64.027 63.4709 64.4448V64.4389Z" fill="white"/>
<path d="M39.3242 0C42.8744 0 45.9753 1.93284 47.623 4.79395H48.9111C54.1989 4.79395 58.498 9.09305 58.498 14.3809V51.1357C54.4879 51.2367 50.8073 52.6643 47.8779 54.9951C47.2269 54.3351 46.3214 53.9268 45.3164 53.9268H28.5391C26.5469 53.9268 24.9445 55.5293 24.9443 57.5215C24.9443 59.5138 26.5468 61.1172 28.5391 61.1172H42.9551C41.7998 63.4771 41.1504 66.1299 41.1504 68.9346C41.1504 71.7166 41.7889 74.3497 42.9268 76.6953H10.5635C5.27569 76.6953 0.976562 72.3962 0.976562 67.1084V14.3809C0.976562 9.09307 5.27569 4.79397 10.5635 4.79395H11.8516C13.4993 1.93286 16.6003 3.1145e-05 20.1504 0H39.3242ZM15.3574 52.7285C14.0863 52.7285 12.8667 53.2331 11.9678 54.1318C11.0689 55.0307 10.5635 56.2503 10.5635 57.5215C10.5635 58.7928 11.0688 60.0122 11.9678 60.9111C12.8667 61.81 14.0862 62.3154 15.3574 62.3154C16.6285 62.3153 17.8473 61.8099 18.7461 60.9111C19.645 60.0122 20.1504 58.7928 20.1504 57.5215C20.1503 56.2503 19.645 55.0307 18.7461 54.1318C17.8473 53.2332 16.6284 52.7286 15.3574 52.7285ZM15.3574 33.5547C14.0863 33.5547 12.8667 34.0592 11.9678 34.958C11.0689 35.8569 10.5635 37.0764 10.5635 38.3477C10.5635 39.619 11.0688 40.8384 11.9678 41.7373C12.8667 42.6362 14.0862 43.1416 15.3574 43.1416C16.6285 43.1415 17.8473 42.636 18.7461 41.7373C19.645 40.8384 20.1504 39.619 20.1504 38.3477C20.1503 37.0764 19.645 35.8569 18.7461 34.958C17.8473 34.0594 16.6284 33.5548 15.3574 33.5547ZM28.5391 34.7529C26.5468 34.7529 24.9444 36.3554 24.9443 38.3477C24.9443 40.3399 26.5468 41.9434 28.5391 41.9434H45.3164C47.3086 41.9433 48.9111 40.3399 48.9111 38.3477C48.911 36.3555 47.3086 34.753 45.3164 34.7529H28.5391ZM21.3486 9.58691C19.3566 9.58703 17.7541 11.1896 17.7539 13.1816C17.7539 15.1739 19.3564 16.7772 21.3486 16.7773H38.126C40.1183 16.7773 41.7207 15.1739 41.7207 13.1816C41.7205 11.1895 40.1181 9.58691 38.126 9.58691H21.3486Z" fill="#CDE4F2"/>
<path d="M15.3564 52.728C16.6276 52.7282 17.8463 53.2335 18.7451 54.1323C19.6441 55.0313 20.1494 56.2507 20.1494 57.522C20.1493 58.7931 19.644 60.0118 18.7451 60.9106C17.8463 61.8095 16.6276 62.3148 15.3564 62.3149C14.0851 62.3149 12.8657 61.8096 11.9668 60.9106C11.068 60.0118 10.5626 58.7931 10.5625 57.522C10.5625 56.2507 11.0678 55.0313 11.9668 54.1323C12.8657 53.2334 14.0852 52.728 15.3564 52.728ZM45.3154 53.9263C46.3209 53.9263 47.2269 54.3351 47.8779 54.9956C45.8149 56.637 44.1245 58.7261 42.9541 61.1167H28.5381C26.5459 61.1167 24.9436 59.5141 24.9434 57.522C24.9434 55.5297 26.5458 53.9263 28.5381 53.9263H45.3154ZM15.3564 33.5542C16.6276 33.5543 17.8463 34.0597 18.7451 34.9585C19.6441 35.8574 20.1494 37.0768 20.1494 38.3481C20.1493 39.6193 19.644 40.838 18.7451 41.7368C17.8463 42.6357 16.6276 43.141 15.3564 43.1411C14.0851 43.1411 12.8657 42.6358 11.9668 41.7368C11.068 40.838 10.5626 39.6193 10.5625 38.3481C10.5625 37.0768 11.0678 35.8574 11.9668 34.9585C12.8657 34.0595 14.0851 33.5542 15.3564 33.5542ZM45.3154 34.7524C47.3076 34.7526 48.9102 36.3559 48.9102 38.3481C48.9099 40.3401 47.3075 41.9428 45.3154 41.9429H28.5381C26.546 41.9429 24.9436 40.3402 24.9434 38.3481C24.9434 36.3559 26.5458 34.7524 28.5381 34.7524H45.3154Z" fill="#0578BE"/>
</svg>
