<svg width="98" height="84" viewBox="0 0 98 84" fill="none" xmlns="http://www.w3.org/2000/svg">
<path d="M0.5 9.125C0.5 4.09199 4.59199 0 9.625 0H19.8906C21.7869 0 23.3125 1.52559 23.3125 3.42188C23.3125 5.31816 21.7869 6.84375 19.8906 6.84375H9.625C8.37031 6.84375 7.34375 7.87031 7.34375 9.125V19.3906C7.34375 21.2869 5.81816 22.8125 3.92188 22.8125C2.02559 22.8125 0.5 21.2869 0.5 19.3906V9.125ZM50.6875 3.42188C50.6875 1.52559 52.2131 0 54.1094 0H64.375C69.408 0 73.5 4.09199 73.5 9.125V19.3906C73.5 21.2869 71.9744 22.8125 70.0781 22.8125C68.1818 22.8125 66.6562 21.2869 66.6562 19.3906V9.125C66.6562 7.87031 65.6297 6.84375 64.375 6.84375H54.1094C52.2131 6.84375 50.6875 5.31816 50.6875 3.42188ZM3.92188 50.1875C5.81816 50.1875 7.34375 51.7131 7.34375 53.6094V63.875C7.34375 65.1297 8.37031 66.1562 9.625 66.1562H19.8906C21.7869 66.1562 23.3125 67.6818 23.3125 69.5781C23.3125 71.4744 21.7869 73 19.8906 73H9.625C4.59199 73 0.5 68.908 0.5 63.875V53.6094C0.5 51.7131 2.02559 50.1875 3.92188 50.1875ZM14.1875 22.8125C14.1875 20.2889 16.2264 18.25 18.75 18.25C21.2736 18.25 23.3125 20.2889 23.3125 22.8125V50.1875C23.3125 52.7111 21.2736 54.75 18.75 54.75C16.2264 54.75 14.1875 52.7111 14.1875 50.1875V22.8125ZM42.7031 18.25C44.5994 18.25 46.125 19.7756 46.125 21.6719V51.3281C46.125 53.2244 44.5994 54.75 42.7031 54.75C40.8068 54.75 39.2812 53.2244 39.2812 51.3281V21.6719C39.2812 19.7756 40.8068 18.25 42.7031 18.25ZM50.6875 22.8125C50.6875 20.2889 52.7264 18.25 55.25 18.25C57.7736 18.25 59.8125 20.2889 59.8125 22.8125V50.1875C59.8125 52.7111 57.7736 54.75 55.25 54.75C52.7264 54.75 50.6875 52.7111 50.6875 50.1875V22.8125ZM30.1562 18.25C31.4109 18.25 32.4375 19.2766 32.4375 20.5312V52.4688C32.4375 53.7234 31.4109 54.75 30.1562 54.75C28.9016 54.75 27.875 53.7234 27.875 52.4688V20.5312C27.875 19.2766 28.9016 18.25 30.1562 18.25Z" fill="#0578BE"/>
<path d="M50.5 60.5001C50.5 66.7326 52.9759 72.71 57.383 77.1171C61.7901 81.5242 67.7674 84.0001 74 84.0001C80.2326 84.0001 86.2099 81.5242 90.617 77.1171C95.0241 72.71 97.5 66.7326 97.5 60.5001C97.5 54.2675 95.0241 48.2902 90.617 43.8831C86.2099 39.4759 80.2326 37.0001 74 37.0001C67.7674 37.0001 61.7901 39.4759 57.383 43.8831C52.9759 48.2902 50.5 54.2675 50.5 60.5001ZM66.3625 62.5563C65.6281 61.5833 65.8301 60.2063 66.8031 59.4719C67.7762 58.7376 69.1531 58.9395 69.8875 59.9126L72.366 63.2172L78.0023 54.1936C78.6449 53.1655 80.0035 52.8442 81.0408 53.496C82.0781 54.1477 82.3902 55.4971 81.7385 56.5344L74.3947 68.2844C74.0092 68.8995 73.3482 69.285 72.623 69.3217C71.8979 69.3585 71.2002 69.028 70.7688 68.4405L66.3625 62.5655V62.5563Z" fill="#147160"/>
<path d="M81.0427 53.487C82.0708 54.1295 82.3921 55.4881 81.7404 56.5254L74.3966 68.2754C74.0111 68.8905 73.3501 69.276 72.6249 69.3127C71.8997 69.3495 71.2021 69.019 70.7706 68.4315L66.3644 62.5565C65.63 61.5834 65.832 60.2065 66.805 59.4721C67.7781 58.7377 69.155 58.9397 69.8894 59.9127L72.3679 63.2174L78.0042 54.1938C78.6468 53.1657 80.0054 52.8444 81.0427 53.4961V53.487Z" fill="white"/>
</svg>
