<svg width="150" height="114" viewBox="0 0 150 114" fill="none" xmlns="http://www.w3.org/2000/svg">
<g opacity="0.7">
<path d="M55.4316 61.1715L96.1871 14.3633L136.942 61.1715" stroke="#333333" stroke-width="1.4653"/>
<circle cx="96.1865" cy="14.7676" r="2.01759" fill="#4D4D4D"/>
<path d="M142.592 60.3652C146.158 60.3652 149.048 63.2556 149.048 66.8213V107.173C149.048 110.738 146.157 113.63 142.592 113.63H49.7822C46.2168 113.63 43.3263 110.738 43.3262 107.173V66.8213C43.3262 63.2557 46.2167 60.3655 49.7822 60.3652H142.592ZM51.1475 63.5977C48.589 63.7273 46.5537 65.8429 46.5537 68.4336V105.558C46.5541 108.232 48.7225 110.399 51.3965 110.399H140.978C143.652 110.399 145.819 108.232 145.819 105.558V68.4336C145.819 65.8428 143.785 63.7273 141.227 63.5977L140.978 63.5908H51.3965L51.1475 63.5977ZM141.144 65.209C142.849 65.2955 144.206 66.7065 144.206 68.4336V105.558C144.206 107.34 142.76 108.785 140.978 108.785H51.3965C49.6139 108.785 48.1683 107.34 48.168 105.558V68.4336L48.1719 68.2676C48.2584 66.562 49.6694 65.2051 51.3965 65.2051H140.978L141.144 65.209ZM121.93 81.002C120.685 81.002 119.659 81.2441 118.852 81.7285C118.044 82.2129 117.445 82.8952 117.055 83.7754C116.669 84.6504 116.477 85.679 116.477 86.8613C116.477 87.7467 116.586 88.5514 116.805 89.2754C117.023 89.9993 117.354 90.6217 117.797 91.1426C118.245 91.6634 118.81 92.0645 119.492 92.3457C120.174 92.6217 120.982 92.7598 121.914 92.7598C122.846 92.7598 123.654 92.6217 124.336 92.3457C125.018 92.0645 125.581 91.6634 126.023 91.1426C126.471 90.6217 126.805 90.002 127.023 89.2832C127.242 88.5592 127.352 87.7572 127.352 86.877C127.352 85.6895 127.156 84.6556 126.766 83.7754C126.38 82.8952 125.786 82.2129 124.984 81.7285C124.188 81.2441 123.169 81.002 121.93 81.002ZM68.9844 81.1348L64.9531 92.6035H67.5625L68.3906 89.8848H72.5547L73.3828 92.6035H75.9922L71.9453 81.1348H68.9844ZM77.4375 81.1816V92.6035H81.7109C82.5755 92.6035 83.3203 92.4733 83.9453 92.2129C84.5755 91.9473 85.0599 91.5671 85.3984 91.0723C85.737 90.5775 85.9062 89.9837 85.9062 89.291C85.9062 88.6921 85.8125 88.2129 85.625 87.8535C85.4427 87.4889 85.1979 87.2129 84.8906 87.0254C84.5833 86.8327 84.2396 86.6973 83.8594 86.6191V86.541C84.2344 86.4733 84.5521 86.3275 84.8125 86.1035C85.0729 85.8796 85.2708 85.5931 85.4062 85.2441C85.5469 84.8952 85.6172 84.5046 85.6172 84.0723C85.6172 82.9993 85.2266 82.2493 84.4453 81.8223C83.6641 81.3952 82.513 81.1816 80.9922 81.1816H77.4375ZM88.1875 81.1816V92.6035H94.7656V90.6035H90.6094V87.6582H94.4766V85.6738H90.6094V83.166H94.7656V81.1816H88.1875ZM97.1562 81.1816V92.6035H99.5781V88.2207H100.867L103.594 92.6035H106.281L102.922 87.627C103.297 87.4551 103.646 87.2337 103.969 86.9629C104.292 86.6921 104.552 86.3613 104.75 85.9707C104.948 85.5801 105.047 85.1243 105.047 84.6035C105.047 83.8327 104.883 83.1947 104.555 82.6895C104.227 82.1842 103.724 81.8066 103.047 81.5566C102.375 81.3066 101.521 81.1816 100.484 81.1816H97.1562ZM106.602 81.1816V83.1973H109.703V92.6035H112.125V83.1973H115.227V81.1816H106.602ZM121.93 83.0176C122.956 83.0176 123.693 83.3613 124.141 84.0488C124.589 84.7363 124.812 85.679 124.812 86.877C124.812 87.6738 124.714 88.3613 124.516 88.9395C124.323 89.5124 124.013 89.9551 123.586 90.2676C123.159 90.5749 122.602 90.7285 121.914 90.7285C121.237 90.7285 120.685 90.5749 120.258 90.2676C119.831 89.9551 119.516 89.5124 119.312 88.9395C119.115 88.3613 119.016 87.6738 119.016 86.877C119.016 86.0749 119.115 85.3874 119.312 84.8145C119.516 84.2363 119.831 83.7936 120.258 83.4863C120.69 83.1738 121.247 83.0176 121.93 83.0176ZM81.3594 87.627C81.875 87.627 82.2786 87.6868 82.5703 87.8066C82.8672 87.9264 83.0781 88.0931 83.2031 88.3066C83.3281 88.5202 83.3906 88.7676 83.3906 89.0488C83.3906 89.5228 83.2474 89.9004 82.9609 90.1816C82.6745 90.4629 82.1667 90.6035 81.4375 90.6035H79.8594V87.627H81.3594ZM70.6797 83.666C70.7682 83.9525 70.8542 84.2363 70.9375 84.5176C71.026 84.7936 71.0964 85.0202 71.1484 85.1973L71.9766 87.8535H69L69.8203 85.1973C69.8568 85.0775 69.9167 84.877 70 84.5957C70.0833 84.3145 70.1693 84.0176 70.2578 83.7051C70.3516 83.3874 70.4245 83.1217 70.4766 82.9082C70.5286 83.1217 70.5964 83.3743 70.6797 83.666ZM100.312 83.166C101.094 83.166 101.669 83.2806 102.039 83.5098C102.414 83.7389 102.602 84.1243 102.602 84.666C102.602 85.1868 102.427 85.5827 102.078 85.8535C101.734 86.1191 101.161 86.252 100.359 86.252H99.5781V83.166H100.312ZM81.1328 83.166C81.8255 83.166 82.3307 83.2624 82.6484 83.4551C82.9714 83.6426 83.1328 83.9551 83.1328 84.3926C83.1328 84.8249 82.9974 85.153 82.7266 85.377C82.4557 85.5957 81.9688 85.7051 81.2656 85.7051H79.8594V83.166H81.1328Z" fill="#4D4D4D"/>
<path d="M27.6334 25.9298L28.7434 29.6369L29.8534 33.3439L33.1835 44.4651L34.2935 48.1722L35.4035 51.8792L36.4114 51.5775C44.2773 49.2222 52.7554 50.0918 59.981 53.9874L66.5443 57.5259C67.9292 58.2725 69.6099 58.1101 70.8267 57.1146C72.0434 56.1191 72.5446 54.5047 72.0936 52.9987L66.9737 35.8999L62.7869 21.9173L57.6669 4.81851C57.2195 3.3241 55.91 2.23927 54.3464 2.0763C53.8391 2.02623 53.3248 2.07924 52.8499 2.22146C51.8883 2.50937 51.0529 3.1761 50.5578 4.09436L47.0077 10.6611C43.1122 17.8867 36.5072 23.2727 28.6413 25.628C28.3053 25.7286 27.9694 25.8292 27.6334 25.9298Z" fill="#B3B3B3"/>
<path d="M7.6126 40.003C6.38812 35.9136 8.71735 31.5933 12.8067 30.3688L27.6349 25.9288L34.295 48.1712L35.405 51.8782L39.8451 66.7065C40.4591 68.7569 39.2985 70.9096 37.248 71.5235L29.8339 73.7436C27.7835 74.3576 25.6308 73.197 25.0168 71.1465L20.5768 56.3183C16.4874 57.5428 12.1671 55.2135 10.9426 51.1242L7.6126 40.003ZM68.5906 27.8034C69.5584 31.0355 68.8282 34.2458 66.9787 35.9105L62.7919 21.9279C65.2519 22.3021 67.6263 24.5829 68.5941 27.815L68.5906 27.8034Z" fill="#333333"/>
</g>
</svg>
