<svg width="110" height="84" viewBox="0 0 110 84" fill="none" xmlns="http://www.w3.org/2000/svg">
<path d="M40.5312 45.2213L70.6595 10.6187L100.788 45.2213" stroke="#F7A833" stroke-width="1.4653"/>
<path d="M70.6631 9.7915C71.2844 9.7915 71.7879 10.2952 71.7881 10.9165C71.7881 11.5379 71.2845 12.0415 70.6631 12.0415C70.0418 12.0413 69.5381 11.5378 69.5381 10.9165C69.5382 10.2953 70.0419 9.79166 70.6631 9.7915Z" fill="#0578BE" stroke="#F7A833" stroke-width="0.732652"/>
<path d="M104.968 44.6245C107.604 44.6245 109.74 46.7613 109.74 49.397V79.2271C109.74 81.863 107.604 84.0005 104.968 84.0005H36.3584C33.7227 84.0002 31.5859 81.8628 31.5859 79.2271V49.397C31.5862 46.7614 33.7229 44.6248 36.3584 44.6245H104.968ZM37.3672 47.0142C35.4761 47.1102 33.9719 48.6735 33.9717 50.5884V78.0317C33.9717 80.0086 35.5749 81.6117 37.5518 81.6118H103.774C105.751 81.6117 107.354 80.0086 107.354 78.0317V50.5884C107.353 48.6733 105.849 47.11 103.958 47.0142L103.774 47.0093H37.5518L37.3672 47.0142ZM103.897 48.2056C105.158 48.2697 106.16 49.3119 106.16 50.5884V78.0317C106.16 79.3496 105.092 80.4183 103.774 80.4185H37.5518C36.2338 80.4184 35.165 79.3497 35.165 78.0317V50.5884L35.168 50.4653C35.2322 49.2047 36.2752 48.2027 37.5518 48.2026H103.774L103.897 48.2056ZM60.1709 58.9976C59.4675 58.9976 58.8441 59.1131 58.3018 59.3462C57.7594 59.5792 57.3042 59.9104 56.9355 60.3384C56.567 60.7662 56.2873 61.2724 56.0967 61.8569C55.906 62.4417 55.8105 63.0862 55.8105 63.7896C55.8106 64.7429 55.9593 65.5774 56.2559 66.2935C56.5525 67.0053 57.0077 67.5602 57.6221 67.9585C58.2407 68.3526 59.0287 68.5503 59.9863 68.5503C60.4819 68.5503 60.9289 68.5123 61.3271 68.436C61.7253 68.364 62.1302 68.2431 62.541 68.0737V66.4204C62.0962 66.5771 61.683 66.698 61.3018 66.7827C60.9248 66.8674 60.5479 66.9106 60.1709 66.9106C59.6285 66.9106 59.185 66.7899 58.8418 66.5483C58.4987 66.3026 58.2443 65.9486 58.0791 65.4868C57.9181 65.0207 57.8379 64.459 57.8379 63.8022C57.8379 63.3151 57.8886 62.8766 57.9902 62.4868C58.0919 62.097 58.2407 61.7642 58.4355 61.4888C58.6347 61.2134 58.8779 61.003 59.166 60.8589C59.4584 60.7106 59.7938 60.6372 60.1709 60.6372C60.5098 60.6372 60.8554 60.6979 61.207 60.8208C61.5587 60.9437 61.9085 61.0882 62.2559 61.2534L62.8906 59.6519C62.4671 59.4486 62.0225 59.2897 61.5566 59.1753C61.0949 59.0567 60.6327 58.9976 60.1709 58.9976ZM41.7832 68.4233H43.7217V64.7495H46.874V63.1411H43.7217V60.7446H47.1094V59.1304H41.7832V68.4233ZM48.9268 68.4233H54.2783V66.7954H50.8975V64.3999H54.0439V62.7856H50.8975V60.7446H54.2783V59.1304H48.9268V68.4233ZM64.5244 68.4233H66.4951V64.4126H70.1748V68.4233H72.1387V59.1304H70.1748V62.7729H66.4951V59.1304H64.5244V68.4233ZM73.3213 68.4233H75.4443L76.1182 66.2114H79.5059L80.1797 68.4233H82.3018L79.0098 59.0923H76.6006L73.3213 68.4233ZM83.4775 68.4233H86.1094C87.1772 68.4233 88.0902 68.2467 88.8486 67.895C89.607 67.5391 90.1857 67.0121 90.584 66.313C90.9865 65.6096 91.1875 64.7345 91.1875 63.688C91.1875 62.6922 90.9907 61.8568 90.5967 61.1831C90.2027 60.5054 89.6475 59.995 88.9316 59.6519C88.2156 59.3044 87.37 59.1304 86.3955 59.1304H83.4775V68.4233ZM95.0625 59.0923L91.7832 68.4224H93.9062L94.5791 66.2114H97.9668L98.6406 68.4224H100.764L97.4717 59.0923H95.0625ZM86.4971 60.7446C87.0733 60.7446 87.5565 60.8511 87.9463 61.063C88.3403 61.2749 88.6368 61.6035 88.8359 62.0483C89.0392 62.489 89.1406 63.0525 89.1406 63.7388C89.1406 64.7514 88.9059 65.5142 88.4355 66.0269C87.9695 66.5395 87.2556 66.7954 86.2939 66.7954H85.4482V60.7446H86.4971ZM77.9805 61.1519C78.0524 61.3847 78.1217 61.6156 78.1895 61.8442C78.2615 62.0688 78.319 62.2539 78.3613 62.3979L79.0352 64.5581H76.6133L77.2812 62.3979C77.3109 62.3005 77.359 62.1365 77.4268 61.9077C77.4945 61.679 77.5647 61.4372 77.6367 61.1831C77.7129 60.925 77.7721 60.7092 77.8145 60.5356C77.8568 60.7093 77.9127 60.9147 77.9805 61.1519ZM96.4414 61.1519C96.5134 61.3848 96.5836 61.6155 96.6514 61.8442C96.7233 62.0686 96.7809 62.253 96.8232 62.397L97.4971 64.5581H95.0752L95.7422 62.397C95.7719 62.2995 95.8209 62.1363 95.8887 61.9077C95.9565 61.679 96.0266 61.4373 96.0986 61.1831C96.1749 60.9248 96.234 60.7083 96.2764 60.5347C96.3187 60.7084 96.3736 60.9146 96.4414 61.1519Z" fill="#0578BE"/>
<path d="M19.9854 19.1682L20.806 21.9087L21.6266 24.6491L24.0883 32.8703L24.9088 35.6108L25.7294 38.3512L26.4745 38.1281C32.2893 36.3869 38.5567 37.0298 43.8982 39.9096L48.7501 42.5254C49.7739 43.0774 51.0163 42.9573 51.9158 42.2214C52.8152 41.4855 53.1858 40.2921 52.8524 39.1788L49.0675 26.5386L45.9724 16.202L42.1875 3.56184C41.8567 2.4571 40.8887 1.65515 39.7329 1.53467C39.3579 1.49766 38.9777 1.53685 38.6265 1.64198C37.9157 1.85482 37.2981 2.3477 36.9322 3.02651L34.3078 7.88093C31.428 13.2224 26.5453 17.204 20.7305 18.9451C20.4821 19.0195 20.2338 19.0939 19.9854 19.1682Z" fill="#CDE4F2"/>
<path d="M5.18802 29.5726C4.28283 26.5496 6.0047 23.3558 9.02773 22.4507L19.9894 19.1684L24.9129 35.6109L25.7334 38.3513L29.0157 49.313C29.4696 50.8288 28.6117 52.4201 27.0959 52.874L21.615 54.5152C20.0992 54.969 18.5079 54.1111 18.054 52.5953L14.7717 41.6336C11.7487 42.5388 8.55493 40.8169 7.64973 37.7939L5.18802 29.5726Z" fill="#0578BE"/>
<path d="M50.2645 21.5586C50.2641 21.5572 50.2637 21.5558 50.2633 21.5544L50.2658 21.5629C50.2654 21.5615 50.265 21.5601 50.2645 21.5586C50.978 23.9465 50.4381 26.3176 49.0717 27.5475L45.9766 17.2109C47.794 17.4874 49.5483 19.1716 50.2645 21.5586Z" fill="#F7A833"/>
</svg>
