<svg width="150" height="114" viewBox="0 0 150 114" fill="none" xmlns="http://www.w3.org/2000/svg">
<g opacity="0.7">
<path d="M55.4316 61.1686L96.1871 14.3604L136.942 61.1686" stroke="#333333" stroke-width="1.4653"/>
<circle cx="96.1865" cy="14.7647" r="2.01759" fill="#4D4D4D"/>
<path d="M142.592 60.3633C146.158 60.3633 149.048 63.2536 149.048 66.8193V107.171C149.048 110.737 146.157 113.628 142.592 113.628H49.7822C46.2168 113.628 43.3263 110.736 43.3262 107.171V66.8193C43.3262 63.2538 46.2167 60.3635 49.7822 60.3633H142.592ZM51.1475 63.5957C48.589 63.7254 46.5537 65.8409 46.5537 68.4316V105.556C46.5541 108.23 48.7225 110.397 51.3965 110.397H140.978C143.652 110.397 145.819 108.23 145.819 105.556V68.4316C145.819 65.8409 143.785 63.7253 141.227 63.5957L140.978 63.5889H51.3965L51.1475 63.5957ZM141.144 65.207C142.849 65.2936 144.206 66.7046 144.206 68.4316V105.556C144.206 107.338 142.76 108.783 140.978 108.783H51.3965C49.6139 108.783 48.1683 107.338 48.168 105.556V68.4316L48.1719 68.2656C48.2584 66.5601 49.6694 65.2032 51.3965 65.2031H140.978L141.144 65.207ZM81.2266 80.7002C80.2753 80.7002 79.4328 80.8577 78.6992 81.1729C77.9655 81.4881 77.3493 81.9357 76.8506 82.5146C76.352 83.0935 75.9737 83.7784 75.7158 84.5693C75.4579 85.3602 75.3291 86.2313 75.3291 87.1826C75.3291 88.4722 75.5295 89.6017 75.9307 90.5703C76.3319 91.5333 76.9482 92.2845 77.7793 92.8232C78.6161 93.3563 79.6822 93.623 80.9775 93.623C81.6482 93.623 82.2532 93.5709 82.792 93.4678C83.3306 93.3703 83.8778 93.2067 84.4336 92.9775V90.7422C83.832 90.9542 83.2735 91.1178 82.7578 91.2324C82.2477 91.3471 81.7367 91.4043 81.2266 91.4043C80.4931 91.4042 79.8939 91.2407 79.4297 90.9141C78.9656 90.5816 78.6219 90.1031 78.3984 89.4785C78.1806 88.848 78.0713 88.0886 78.0713 87.2002C78.0713 86.5412 78.1408 85.9481 78.2783 85.4209C78.4159 84.8936 78.6162 84.4429 78.8799 84.0703C79.1492 83.698 79.4787 83.4146 79.8682 83.2197C80.2636 83.0192 80.7166 82.919 81.2266 82.9189C81.685 82.9189 82.1523 83.0018 82.6279 83.168C83.1037 83.3342 83.5769 83.5294 84.0469 83.7529L84.9072 81.5859C84.3342 81.3109 83.7319 81.0962 83.1016 80.9414C82.4768 80.7809 81.8513 80.7002 81.2266 80.7002ZM131.231 80.6836C129.862 80.6836 128.732 80.9494 127.844 81.4824C126.955 82.0155 126.296 82.7667 125.866 83.7354C125.442 84.6983 125.23 85.8307 125.23 87.1318C125.23 88.106 125.35 88.9915 125.591 89.7881C125.832 90.5847 126.196 91.2697 126.683 91.8428C127.176 92.416 127.798 92.8575 128.549 93.167C129.3 93.4707 130.188 93.623 131.214 93.623C132.24 93.623 133.128 93.4707 133.879 93.167C134.63 92.8575 135.249 92.416 135.736 91.8428C136.229 91.2696 136.596 90.5878 136.837 89.7969C137.078 89.0002 137.198 88.1171 137.198 87.1484C137.198 85.8417 136.983 84.704 136.553 83.7354C136.129 82.7668 135.475 82.0155 134.593 81.4824C133.716 80.9495 132.595 80.6836 131.231 80.6836ZM56.3535 80.8809V93.4512H58.9756V88.4814H63.2402V86.3057H58.9756V83.0645H63.5586V80.8809H56.3535ZM66.0176 80.8809V93.4512H73.2568V91.25H68.6826V88.0088H72.9385V85.8242H68.6826V83.0645H73.2568V80.8809H66.0176ZM87.1162 80.8809V93.4512H89.7812V88.0254H94.7598V93.4512H97.416V80.8809H94.7598V85.8076H89.7812V80.8809H87.1162ZM103.452 80.8291L99.0156 93.4512H101.888L102.799 90.459H107.381L108.293 93.4512H111.164L106.711 80.8291H103.452ZM112.755 80.8809V93.4512H116.314C117.759 93.4511 118.994 93.2129 120.02 92.7373C121.045 92.2559 121.828 91.5423 122.367 90.5967C122.912 89.6453 123.184 88.4615 123.184 87.0459C123.184 85.6989 122.917 84.5696 122.384 83.6582C121.851 82.7412 121.1 82.0502 120.132 81.5859C119.163 81.1159 118.019 80.8809 116.701 80.8809H112.755ZM131.231 82.9014C132.36 82.9014 133.171 83.2797 133.664 84.0361C134.157 84.7927 134.403 85.8302 134.403 87.1484C134.403 88.0252 134.295 88.7818 134.077 89.418C133.865 90.0485 133.524 90.536 133.054 90.8799C132.584 91.218 131.97 91.3877 131.214 91.3877C130.469 91.3877 129.862 91.218 129.392 90.8799C128.922 90.536 128.574 90.0485 128.351 89.418C128.133 88.7818 128.024 88.0252 128.024 87.1484C128.024 86.2659 128.133 85.5093 128.351 84.8789C128.574 84.2427 128.922 83.7552 129.392 83.417C129.867 83.0732 130.481 82.9014 131.231 82.9014ZM116.839 83.0645C117.618 83.0645 118.272 83.2077 118.799 83.4941C119.332 83.7807 119.734 84.2253 120.003 84.8271C120.278 85.4233 120.415 86.1857 120.415 87.1143C120.415 88.484 120.097 89.5154 119.461 90.209C118.83 90.9025 117.865 91.25 116.563 91.25H115.42V83.0645H116.839ZM105.094 82.7812C105.151 83.0162 105.226 83.2943 105.317 83.6152C105.415 83.9303 105.51 84.2424 105.602 84.5518C105.699 84.8554 105.777 85.1049 105.834 85.2998L106.745 88.2236H103.469L104.372 85.2998C104.412 85.1679 104.478 84.947 104.569 84.6377C104.661 84.3283 104.756 84.0019 104.854 83.6582C104.957 83.3087 105.036 83.0162 105.094 82.7812Z" fill="#4D4D4D"/>
<path d="M27.6324 25.9288L28.7424 29.6359L29.8525 33.343L33.1825 44.4641L34.2925 48.1712L35.4025 51.8783L36.4104 51.5765C44.2763 49.2212 52.7544 50.0908 59.98 53.9864L66.5433 57.5249C67.9282 58.2715 69.609 58.1091 70.8257 57.1136C72.0424 56.1181 72.5436 54.5037 72.0927 52.9978L66.9727 35.8989L62.7859 21.9164L57.666 4.81753C57.2185 3.32312 55.909 2.23829 54.3455 2.07532C53.8382 2.02525 53.3238 2.07826 52.8489 2.22048C51.8874 2.50839 51.0519 3.17512 50.5568 4.09338L47.0068 10.6601C43.1112 17.8857 36.5062 23.2717 28.6403 25.627C28.3043 25.7276 27.9684 25.8282 27.6324 25.9288Z" fill="#B3B3B3"/>
<path d="M7.6126 40.003C6.38812 35.9136 8.71735 31.5933 12.8067 30.3688L27.6349 25.9288L34.295 48.1712L35.405 51.8782L39.8451 66.7065C40.4591 68.7569 39.2985 70.9096 37.248 71.5235L29.8339 73.7436C27.7835 74.3576 25.6308 73.197 25.0168 71.1465L20.5768 56.3183C16.4874 57.5428 12.1671 55.2135 10.9426 51.1242L7.6126 40.003ZM68.5906 27.8034C69.5584 31.0355 68.8282 34.2458 66.9787 35.9105L62.7919 21.9279C65.2519 22.3021 67.6263 24.5829 68.5941 27.815L68.5906 27.8034Z" fill="#333333"/>
</g>
</svg>
