<svg width="100" height="84" viewBox="0 0 100 84" fill="none" xmlns="http://www.w3.org/2000/svg">
<path d="M50.9297 45.6406C49.3665 47.8477 48.4473 50.544 48.4473 53.4551V74.8916C48.4473 76.0922 48.6051 77.256 48.8984 78.3643C48.0035 79.6367 47.1131 80.6715 46.252 81.4688C44.4185 83.1802 43.1578 83.457 42.5029 83.457C41.8481 83.457 40.5874 83.1803 38.7539 81.4688C36.8877 79.741 34.874 76.9211 33.0078 72.9277C29.6846 65.8371 27.3439 56.1543 26.8691 45.6406H50.9297ZM18.9951 45.6406C19.5681 59.5937 23.1859 72.5528 28.4736 81.0615C13.3963 75.7476 2.29665 62.0713 0.757812 45.6406H18.9951ZM28.4736 2.39648C23.186 10.9052 19.5681 23.8635 18.9951 37.8164H0.757812C2.29673 21.3858 13.3964 7.71035 28.4736 2.39648ZM42.4863 0C43.1411 0 44.4019 0.276908 46.2354 1.98828C48.1016 3.71611 50.1152 6.55301 51.9814 10.5303C55.3046 17.6208 57.6461 27.3029 58.1045 37.8164H26.8525C27.3273 27.303 29.6681 17.6208 32.9912 10.5303C34.8575 6.55301 36.8711 3.71611 38.7373 1.98828C40.5707 0.276905 41.8315 4.91847e-05 42.4863 0ZM56.5 2.39648C69.6918 7.04595 79.8382 18.0966 83.2002 31.793H82.2227C78.3748 31.793 74.9172 34.1145 73.4434 37.6514L73.4463 37.6533C73.4239 37.7072 73.4041 37.7623 73.3828 37.8164H65.9785C65.4055 23.8637 61.7876 10.9052 56.5 2.39648Z" fill="#CDE4F2"/>
<path d="M79.2844 39.4095C79.7348 38.3286 80.7887 37.626 81.9507 37.626H96.3631C97.9575 37.626 99.2456 38.9141 99.2456 40.5085V54.9209C99.2456 56.0829 98.543 57.1368 97.4621 57.5872C96.3812 58.0375 95.1471 57.7853 94.3184 56.9656L89.1569 51.7952L75.339 65.604C74.2131 66.73 72.3845 66.73 71.2585 65.604C70.1326 64.4781 70.1326 62.6495 71.2585 61.5235L85.0764 47.7147L79.915 42.5442C79.0863 41.7155 78.8431 40.4814 79.2935 39.4005L79.2844 39.4095Z" fill="#F7A833"/>
<path d="M60.1059 46.3994C56.1108 46.3994 52.875 49.6352 52.875 53.6303V76.769C52.875 80.7641 56.1108 83.9999 60.1059 83.9999H83.2446C87.2397 83.9999 90.4755 80.7641 90.4755 76.769V69.5382C90.4755 67.9384 89.183 66.6458 87.5832 66.6458C85.9833 66.6458 84.6908 67.9384 84.6908 69.5382V76.769C84.6908 77.5644 84.04 78.2152 83.2446 78.2152H60.1059C59.3105 78.2152 58.6597 77.5644 58.6597 76.769V53.6303C58.6597 52.8349 59.3105 52.1841 60.1059 52.1841H67.3367C68.9366 52.1841 70.2291 50.8916 70.2291 49.2918C70.2291 47.6919 68.9366 46.3994 67.3367 46.3994H60.1059Z" fill="#0578BE"/>
</svg>
