<svg width="106" height="85" viewBox="0 0 106 85" fill="none" xmlns="http://www.w3.org/2000/svg">
<path fill-rule="evenodd" clip-rule="evenodd" d="M39.3312 21.1645V28.0527C39.3312 31.8555 42.4399 34.9408 46.2716 34.9408H53.2121C57.0438 34.9408 60.1526 31.8555 60.1526 28.0527V21.1645C60.1526 17.3617 57.0438 14.2764 53.2121 14.2764H46.2716C42.4399 14.2764 39.3312 17.3617 39.3312 21.1645ZM53.2121 21.1645H46.2716V28.0527H53.2121V21.1645Z" fill="#0578BE"/>
<path fill-rule="evenodd" clip-rule="evenodd" d="M13.8828 21.1645V28.0527C13.8828 31.8555 16.9916 34.9408 20.8233 34.9408H27.7637C31.5955 34.9408 34.7042 31.8555 34.7042 28.0527V21.1645C34.7042 17.3617 31.5955 14.2764 27.7637 14.2764H20.8233C16.9916 14.2764 13.8828 17.3617 13.8828 21.1645ZM27.7637 21.1645H20.8233V28.0527H27.7637V21.1645Z" fill="#0578BE"/>
<path fill-rule="evenodd" clip-rule="evenodd" d="M20.8233 39.5329C16.9916 39.5329 13.8828 42.6182 13.8828 46.421V53.3092C13.8828 57.112 16.9916 60.1973 20.8233 60.1973H27.7637C31.5955 60.1973 34.7042 57.112 34.7042 53.3092V46.421C34.7042 42.6182 31.5955 39.5329 27.7637 39.5329H20.8233ZM27.7637 53.3092V46.421H20.8233V53.3092H27.7637Z" fill="#0578BE"/>
<path d="M3.4707 51.0127C5.39353 51.0129 6.94037 52.5486 6.94043 54.457V64.7891C6.94043 66.0519 7.98151 67.0849 9.25391 67.085H19.665C21.5879 67.0852 23.1347 68.6209 23.1348 70.5293C23.1348 72.4378 21.5879 73.9734 19.665 73.9736H9.25391C4.14979 73.9736 0 69.8547 0 64.7891V54.457C6.06165e-05 52.5485 1.54765 51.0127 3.4707 51.0127ZM19.665 0.5C21.5879 0.50021 23.1348 2.03588 23.1348 3.94434C23.1346 5.85267 21.5879 7.38749 19.665 7.3877H9.25391C7.98151 7.38772 6.94043 8.42176 6.94043 9.68457V20.0166C6.94033 21.9249 5.39351 23.4607 3.4707 23.4609C1.54768 23.4609 0.000101586 21.9251 0 20.0166V9.68457C0 4.61893 4.14979 0.500024 9.25391 0.5H19.665ZM64.7773 0.5C69.8815 0.5 74.0312 4.61891 74.0312 9.68457V20.0166C74.0312 21.9251 72.4845 23.4609 70.5615 23.4609C68.6385 23.4609 67.0909 21.9251 67.0908 20.0166V9.68457C67.0908 8.42174 66.0498 7.3877 64.7773 7.3877H54.3672C52.4442 7.3877 50.8966 5.8528 50.8965 3.94434C50.8965 2.03575 52.4441 0.5 54.3672 0.5H64.7773Z" fill="#0578BE"/>
<path d="M40.6833 40.8777C41.5511 40.0165 42.728 39.5327 43.9551 39.5327C45.1823 39.5327 46.3591 40.0165 47.2269 40.8777C48.0946 41.7389 48.5821 42.9069 48.5821 44.1248C48.5821 45.3427 48.0946 46.5107 47.2269 47.3719C46.3591 48.2331 45.1823 48.7169 43.9551 48.7169C42.728 48.7169 41.5511 48.2331 40.6833 47.3719C39.8156 46.5107 39.3281 45.3427 39.3281 44.1248C39.3281 42.9069 39.8156 41.7389 40.6833 40.8777Z" fill="#0578BE"/>
<path d="M40.6833 58.8522C39.8156 57.991 39.3281 56.823 39.3281 55.6051C39.3281 54.3872 39.8156 53.2191 40.6833 52.358C41.5511 51.4968 42.728 51.013 43.9551 51.013C45.1823 51.013 46.3591 51.4968 47.2269 52.358C48.0946 53.2191 48.5821 54.3872 48.5821 55.6051C48.5821 56.823 48.0946 57.991 47.2269 58.8522C46.3591 59.7133 45.1823 60.1972 43.9551 60.1972C42.728 60.1972 41.5511 59.7133 40.6833 58.8522Z" fill="#0578BE"/>
<path d="M52.2508 40.8777C53.1185 40.0165 54.2954 39.5327 55.5225 39.5327C56.7497 39.5327 57.9266 40.0165 58.7943 40.8777C59.662 41.7389 60.1495 42.9069 60.1495 44.1248C60.1495 45.3427 59.662 46.5107 58.7943 47.3719C57.9266 48.2331 56.7497 48.7169 55.5225 48.7169C54.2954 48.7169 53.1185 48.2331 52.2508 47.3719C51.383 46.5107 50.8956 45.3427 50.8956 44.1248C50.8956 42.9069 51.383 41.7389 52.2508 40.8777Z" fill="#0578BE"/>
<path d="M52.2508 58.8522C51.383 57.991 50.8956 56.823 50.8956 55.6051C50.8956 54.3872 51.383 53.2191 52.2508 52.358C53.1185 51.4968 54.2954 51.013 55.5225 51.013C56.7497 51.013 57.9266 51.4968 58.7943 52.358C59.662 53.2191 60.1495 54.3872 60.1495 55.6051C60.1495 56.823 59.662 57.991 58.7943 58.8522C57.9266 59.7133 56.7497 60.1972 55.5225 60.1972C54.2954 60.1972 53.1185 59.7133 52.2508 58.8522Z" fill="#0578BE"/>
<path d="M49.3354 77.8693C48.5869 79.2628 48.6204 80.9485 49.4248 82.3083C50.2291 83.6682 51.6926 84.4998 53.2677 84.4998H101.528C103.103 84.4998 104.556 83.6682 105.371 82.3083C106.187 80.9485 106.209 79.2628 105.461 77.8693L81.3303 32.9171C80.5483 31.4674 79.0402 30.5571 77.398 30.5571C75.7558 30.5571 74.2476 31.4674 73.4656 32.9171L49.3354 77.8693ZM80.3807 73.7112C80.4056 74.12 80.3471 74.5295 80.2088 74.9146C80.0704 75.2997 79.8552 75.6523 79.5763 75.9506C79.2974 76.2489 78.9607 76.4866 78.5871 76.649C78.2134 76.8115 77.8106 76.8953 77.4036 76.8953C76.9965 76.8953 76.5937 76.8115 76.2201 76.649C75.8464 76.4866 75.5098 76.2489 75.2309 75.9506C74.952 75.6523 74.7367 75.2997 74.5984 74.9146C74.46 74.5295 74.4015 74.12 74.4264 73.7112C74.4015 73.3025 74.46 72.893 74.5984 72.5079C74.7367 72.1227 74.952 71.7702 75.2309 71.4719C75.5098 71.1736 75.8464 70.9359 76.2201 70.7734C76.5937 70.611 76.9965 70.5271 77.4036 70.5271C77.8106 70.5271 78.2134 70.611 78.5871 70.7734C78.9607 70.9359 79.2974 71.1736 79.5763 71.4719C79.8552 71.7702 80.0704 72.1227 80.2088 72.5079C80.3471 72.893 80.4056 73.3025 80.3807 73.7112ZM74.7168 52.1342C74.7168 50.6395 75.9122 49.4371 77.398 49.4371C78.8838 49.4371 80.0791 50.6395 80.0791 52.1342V64.7208C80.0791 66.2155 78.8838 67.4179 77.398 67.4179C75.9122 67.4179 74.7168 66.2155 74.7168 64.7208V52.1342Z" fill="#F7A833"/>
<path d="M80.0807 52.1332C80.0807 50.6385 78.8854 49.436 77.3996 49.436C75.9138 49.436 74.7185 50.6385 74.7185 52.1332V64.7198C74.7185 66.2144 75.9138 67.4169 77.3996 67.4169C78.8854 67.4169 80.0807 66.2144 80.0807 64.7198V52.1332ZM77.3996 76.7108C77.8059 76.7358 78.213 76.677 78.5958 76.5378C78.9787 76.3986 79.3291 76.1821 79.6257 75.9015C79.9222 75.6209 80.1585 75.2823 80.32 74.9064C80.4815 74.5305 80.5648 74.1253 80.5648 73.7158C80.5648 73.3063 80.4815 72.9012 80.32 72.5253C80.1585 72.1494 79.9222 71.8108 79.6257 71.5302C79.3291 71.2496 78.9787 71.0331 78.5958 70.8939C78.213 70.7547 77.8059 70.6959 77.3996 70.7209C76.9933 70.6959 76.5862 70.7547 76.2033 70.8939C75.8205 71.0331 75.47 71.2496 75.1735 71.5302C74.877 71.8108 74.6407 72.1494 74.4792 72.5253C74.3177 72.9012 74.2344 73.3063 74.2344 73.7158C74.2344 74.1253 74.3177 74.5305 74.4792 74.9064C74.6407 75.2823 74.877 75.6209 75.1735 75.9015C75.47 76.1821 75.8205 76.3986 76.2033 76.5378C76.5862 76.677 76.9933 76.7358 77.3996 76.7108Z" fill="white"/>
</svg>
