<svg width="106" height="85" viewBox="0 0 106 85" fill="none" xmlns="http://www.w3.org/2000/svg">
<path d="M0.898438 9.65369C0.898438 4.62068 4.99043 0.528687 10.0234 0.528687H20.2891C22.1854 0.528687 23.7109 2.05427 23.7109 3.95056C23.7109 5.84685 22.1854 7.37244 20.2891 7.37244H10.0234C8.76875 7.37244 7.74219 8.399 7.74219 9.65369V19.9193C7.74219 21.8156 6.2166 23.3412 4.32031 23.3412C2.42402 23.3412 0.898438 21.8156 0.898438 19.9193V9.65369ZM51.0859 3.95056C51.0859 2.05427 52.6115 0.528687 54.5078 0.528687H64.7734C69.8064 0.528687 73.8984 4.62068 73.8984 9.65369V19.9193C73.8984 21.8156 72.3728 23.3412 70.4766 23.3412C68.5803 23.3412 67.0547 21.8156 67.0547 19.9193V9.65369C67.0547 8.399 66.0281 7.37244 64.7734 7.37244H54.5078C52.6115 7.37244 51.0859 5.84685 51.0859 3.95056ZM4.32031 50.7162C6.2166 50.7162 7.74219 52.2418 7.74219 54.1381V64.4037C7.74219 65.6584 8.76875 66.6849 10.0234 66.6849H20.2891C22.1854 66.6849 23.7109 68.2105 23.7109 70.1068C23.7109 72.0031 22.1854 73.5287 20.2891 73.5287H10.0234C4.99043 73.5287 0.898438 69.4367 0.898438 64.4037V54.1381C0.898438 52.2418 2.42402 50.7162 4.32031 50.7162ZM14.5859 23.3412C14.5859 20.8176 16.6248 18.7787 19.1484 18.7787C21.6721 18.7787 23.7109 20.8176 23.7109 23.3412V50.7162C23.7109 53.2398 21.6721 55.2787 19.1484 55.2787C16.6248 55.2787 14.5859 53.2398 14.5859 50.7162V23.3412ZM43.1016 18.7787C44.9979 18.7787 46.5234 20.3043 46.5234 22.2006V51.8568C46.5234 53.7531 44.9979 55.2787 43.1016 55.2787C41.2053 55.2787 39.6797 53.7531 39.6797 51.8568V22.2006C39.6797 20.3043 41.2053 18.7787 43.1016 18.7787ZM51.0859 23.3412C51.0859 20.8176 53.1248 18.7787 55.6484 18.7787C58.1721 18.7787 60.2109 20.8176 60.2109 23.3412V50.7162C60.2109 53.2398 58.1721 55.2787 55.6484 55.2787C53.1248 55.2787 51.0859 53.2398 51.0859 50.7162V23.3412ZM30.5547 18.7787C31.8094 18.7787 32.8359 19.8052 32.8359 21.0599V52.9974C32.8359 54.2521 31.8094 55.2787 30.5547 55.2787C29.3 55.2787 28.2734 54.2521 28.2734 52.9974V21.0599C28.2734 19.8052 29.3 18.7787 30.5547 18.7787Z" fill="#0578BE"/>
<path d="M48.437 77.8409C47.6885 79.2344 47.722 80.9201 48.5263 82.2799C49.3307 83.6397 50.7941 84.4713 52.3693 84.4713H100.63C102.205 84.4713 103.657 83.6397 104.473 82.2799C105.288 80.9201 105.311 79.2344 104.562 77.8409L80.4319 32.8887C79.6499 31.439 78.1417 30.5287 76.4995 30.5287C74.8573 30.5287 73.3492 31.439 72.5672 32.8887L48.437 77.8409ZM79.4823 73.6828C79.5072 74.0915 79.4487 74.5011 79.3103 74.8862C79.172 75.2713 78.9567 75.6239 78.6778 75.9221C78.3989 76.2204 78.0623 76.4581 77.6886 76.6206C77.315 76.7831 76.9122 76.8669 76.5051 76.8669C76.0981 76.8669 75.6953 76.7831 75.3216 76.6206C74.948 76.4581 74.6113 76.2204 74.3324 75.9221C74.0535 75.6239 73.8383 75.2713 73.6999 74.8862C73.5616 74.5011 73.503 74.0915 73.5279 73.6828C73.503 73.2741 73.5616 72.8645 73.6999 72.4794C73.8383 72.0943 74.0535 71.7417 74.3324 71.4435C74.6113 71.1452 74.948 70.9075 75.3216 70.745C75.6953 70.5825 76.0981 70.4987 76.5051 70.4987C76.9122 70.4987 77.315 70.5825 77.6886 70.745C78.0623 70.9075 78.3989 71.1452 78.6778 71.4435C78.9567 71.7417 79.172 72.0943 79.3103 72.4794C79.4487 72.8645 79.5072 73.2741 79.4823 73.6828ZM73.8184 52.1057C73.8184 50.6111 75.0137 49.4086 76.4995 49.4086C77.9853 49.4086 79.1807 50.6111 79.1807 52.1057V64.6924C79.1807 66.187 77.9853 67.3895 76.4995 67.3895C75.0137 67.3895 73.8184 66.187 73.8184 64.6924V52.1057Z" fill="#F7A833"/>
<path d="M79.1823 52.1047C79.1823 50.6101 77.987 49.4076 76.5012 49.4076C75.0154 49.4076 73.82 50.6101 73.82 52.1047V64.6913C73.82 66.186 75.0154 67.3885 76.5012 67.3885C77.987 67.3885 79.1823 66.186 79.1823 64.6913V52.1047ZM76.5012 76.6823C76.9075 76.7074 77.3146 76.6485 77.6974 76.5093C78.0802 76.3701 78.4307 76.1536 78.7272 75.873C79.0237 75.5925 79.26 75.2538 79.4215 74.8779C79.5831 74.5021 79.6664 74.0969 79.6664 73.6874C79.6664 73.2779 79.5831 72.8727 79.4215 72.4968C79.26 72.121 79.0237 71.7823 78.7272 71.5018C78.4307 71.2212 78.0802 71.0047 77.6974 70.8655C77.3146 70.7263 76.9075 70.6674 76.5012 70.6925C76.0949 70.6674 75.6877 70.7263 75.3049 70.8655C74.9221 71.0047 74.5716 71.2212 74.2751 71.5018C73.9786 71.7823 73.7423 72.121 73.5808 72.4968C73.4193 72.8727 73.3359 73.2779 73.3359 73.6874C73.3359 74.0969 73.4193 74.5021 73.5808 74.8779C73.7423 75.2538 73.9786 75.5925 74.2751 75.873C74.5716 76.1536 74.9221 76.3701 75.3049 76.5093C75.6877 76.6485 76.0949 76.7074 76.5012 76.6823Z" fill="white"/>
</svg>
