<svg width="108" height="84" viewBox="0 0 108 84" fill="none" xmlns="http://www.w3.org/2000/svg">
<path d="M10.9375 0C16.7258 0 21.4276 4.70625 21.4276 10.5V73.5C21.4276 79.2937 26.1294 84 31.9176 84C37.7059 84 42.4077 79.2937 42.4077 73.5V64.5C42.4077 62.0062 44.4121 60 46.9034 60H84.368V18C84.368 8.0625 76.3131 0 66.385 0H10.9375Z" fill="#CDE4F2"/>
<path d="M0.367188 10.5C0.367188 4.70625 5.06427 0 10.8467 0C16.6292 0 21.3263 4.70625 21.3263 10.5V30H9.34966C4.39059 30 0.367188 25.9688 0.367188 21V10.5ZM31.8058 84C37.5883 84 42.2854 79.2937 42.2854 73.5V64.5C42.2854 62.0062 44.2877 60 46.7766 60H97.6773C100.166 60 102.169 62.0062 102.169 64.5V69C102.169 77.2875 95.4691 84 87.1977 84H31.8058Z" fill="#0578BE"/>
<rect x="34.3008" y="21.6953" width="38.9404" height="5.56291" fill="#F7A833"/>
<rect x="34.3008" y="35.0464" width="38.9404" height="5.56291" fill="#F7A833"/>
<rect x="34.3008" y="48.3975" width="38.9404" height="5.56291" fill="#F7A833"/>
<path d="M105.322 21.9504C104.868 21.5044 104.244 21.2505 103.601 21.2505C102.959 21.2505 102.335 21.5044 101.881 21.9504L100.703 23.1087L105.744 28.064L106.922 26.9057C107.376 26.4598 107.634 25.8465 107.634 25.2147C107.634 24.5829 107.376 23.9697 106.922 23.5237L105.322 21.9504ZM90.6399 26.6766C90.8352 26.4845 91.1566 26.4845 91.3519 26.6766L93.2045 28.4976L79.9595 41.5177C79.594 41.877 79.3294 42.3168 79.1908 42.8061L77.4391 48.833L75.8134 50.4249C75.2211 51.0072 75.2211 51.9487 75.8134 52.5247C76.4057 53.1008 77.3634 53.107 77.9495 52.5247L79.5688 50.9328L85.6998 49.2109C86.1913 49.0746 86.645 48.8144 87.0105 48.4552L102.889 32.8521C103.343 32.4061 103.601 31.7929 103.601 31.1611C103.601 30.5293 103.343 29.9161 102.889 29.4701L99.2724 25.9147C98.8188 25.4687 98.195 25.2147 97.5522 25.2147C96.9095 25.2147 96.2857 25.4687 95.832 25.9147L95.3468 26.3916L93.4943 24.5767C92.1144 23.2202 89.8838 23.2202 88.5038 24.5767L81.8624 31.0992C81.2701 31.6814 81.2701 32.6229 81.8624 33.199C82.4548 33.7751 83.4125 33.7812 83.9985 33.199L90.6399 26.6766Z" fill="#0578BE"/>
<path d="M82.0764 43.6982L80.9863 47.4457L84.7985 46.3741L82.0764 43.6982Z" fill="#F7A833"/>
</svg>
