<svg width="82" height="84" viewBox="0 0 82 84" fill="none" xmlns="http://www.w3.org/2000/svg">
<path d="M35.0264 0C37.8151 0.000118262 40.4729 1.09891 42.4414 3.06738L59.9297 20.54C61.8982 22.5087 62.9971 25.1828 62.9971 27.9717V39.2402C59.0709 39.8688 55.4128 41.718 52.5654 44.5654C49.0022 48.1286 47 52.9609 47 58C47 63.0391 49.0022 67.8714 52.5654 71.4346C55.2932 74.1624 58.7651 75.9737 62.5039 76.6738C61.1549 80.9156 57.1819 83.997 52.498 83.9971H10.5C4.70885 83.9971 3.30823e-05 79.2882 0 73.4971V10.5C0 4.70883 4.70883 0 10.5 0H35.0264Z" fill="#CDE4F2"/>
<path d="M59.9261 20.5394L42.4378 3.06743C41.4824 2.11201 40.3647 1.36138 39.1484 0.841797V20.0442C39.1484 22.2769 40.9584 24.0868 43.1911 24.0868H62.2546C61.7333 22.7697 60.9465 21.5598 59.9261 20.5394Z" fill="#0578BE"/>
<path d="M72.95 67.7812L56.2188 51.05C54.8187 53.0125 54 55.4125 54 58C54 64.625 59.375 70 66 70C68.5938 70 70.9938 69.1812 72.95 67.7812ZM75.7812 64.95C77.1812 62.9875 78 60.5875 78 58C78 51.375 72.625 46 66 46C63.4062 46 61.0063 46.8187 59.05 48.2188L75.7812 64.95ZM50 58C50 53.7565 51.6857 49.6869 54.6863 46.6863C57.6869 43.6857 61.7565 42 66 42C70.2435 42 74.3131 43.6857 77.3137 46.6863C80.3143 49.6869 82 53.7565 82 58C82 62.2435 80.3143 66.3131 77.3137 69.3137C74.3131 72.3143 70.2435 74 66 74C61.7565 74 57.6869 72.3143 54.6863 69.3137C51.6857 66.3131 50 62.2435 50 58Z" fill="#B33D3D"/>
<path d="M22.165 48.958C22.7643 48.3523 23.7439 48.3587 24.3496 48.958C24.955 49.5573 24.9552 50.5369 24.3496 51.1426L24.3428 51.1484L20.2832 55.208H46.4502C46.7148 55.208 46.9634 55.2745 47.1807 55.3906C47.0614 56.2504 47 57.122 47 58C47 58.0664 47.0013 58.1329 47.002 58.1992C46.8306 58.2643 46.645 58.3018 46.4502 58.3018H20.2832L24.3428 62.3613C24.9485 62.9606 24.942 63.9402 24.3428 64.5459C23.7435 65.1515 22.7638 65.1516 22.1582 64.5459L15.457 57.8379C14.8515 57.2387 14.8517 56.2591 15.457 55.6533L22.165 48.958ZM38.6602 32.4541C39.2594 31.8485 40.2391 31.8485 40.8447 32.4541L47.5459 39.1631C48.1513 39.7624 48.1515 40.742 47.5459 41.3477L40.8379 48.043C40.2388 48.6483 39.2599 48.6418 38.6543 48.043C38.0486 47.4437 38.0486 46.4641 38.6543 45.8584L42.7129 41.7988H16.5469C15.69 41.7988 15.0001 41.1089 15 40.252C15 39.3949 15.6899 38.7051 16.5469 38.7051H42.7129L38.6543 34.6455L38.6602 34.6387C38.0547 34.0394 38.061 33.0598 38.6602 32.4541Z" fill="#0578BE"/>
</svg>
