<svg width="74" height="84" viewBox="0 0 74 84" fill="none" xmlns="http://www.w3.org/2000/svg">
<path d="M64.9941 78.1699L49.3086 62.4844C47.9961 64.3242 47.2285 66.5742 47.2285 69C47.2285 75.2109 52.2676 80.25 58.4785 80.25C60.9102 80.25 63.1602 79.4824 64.9941 78.1699ZM67.6484 75.5156C68.9609 73.6758 69.7285 71.4258 69.7285 69C69.7285 62.7891 64.6895 57.75 58.4785 57.75C56.0469 57.75 53.7969 58.5176 51.9629 59.8301L67.6484 75.5156ZM43.4785 69C43.4785 65.0218 45.0589 61.2064 47.8719 58.3934C50.685 55.5804 54.5003 54 58.4785 54C62.4568 54 66.2721 55.5804 69.0851 58.3934C71.8982 61.2064 73.4785 65.0218 73.4785 69C73.4785 72.9782 71.8982 76.7936 69.0851 79.6066C66.2721 82.4196 62.4568 84 58.4785 84C54.5003 84 50.685 82.4196 47.8719 79.6066C45.0589 76.7936 43.4785 72.9782 43.4785 69Z" fill="#B33D3D"/>
<path d="M38.8262 0C42.3763 0 45.4772 1.93284 47.125 4.79395H48.4131C53.7009 4.79395 58 9.09305 58 14.3809V51.1357C53.9899 51.2367 50.3093 52.6642 47.3799 54.9951C46.7289 54.3351 45.8234 53.9268 44.8184 53.9268H28.041C26.0488 53.9268 24.4464 55.5293 24.4463 57.5215C24.4463 59.5138 26.0487 61.1172 28.041 61.1172H42.457C41.3018 63.4771 40.6524 66.1299 40.6523 68.9346C40.6523 71.7166 41.2909 74.3497 42.4287 76.6953H10.0654C4.77764 76.6953 0.478516 72.3962 0.478516 67.1084V14.3809C0.478516 9.09307 4.77764 4.79397 10.0654 4.79395H11.3535C13.0013 1.93286 16.1022 3.1145e-05 19.6523 0H38.8262ZM14.8594 52.7285C13.5882 52.7285 12.3686 53.2331 11.4697 54.1318C10.5708 55.0307 10.0655 56.2503 10.0654 57.5215C10.0654 58.7928 10.5708 60.0122 11.4697 60.9111C12.3687 61.81 13.5881 62.3154 14.8594 62.3154C16.1305 62.3153 17.3492 61.8099 18.248 60.9111C19.147 60.0122 19.6523 58.7928 19.6523 57.5215C19.6523 56.2503 19.1469 55.0307 18.248 54.1318C17.3492 53.2332 16.1303 52.7286 14.8594 52.7285ZM14.8594 33.5547C13.5882 33.5547 12.3686 34.0592 11.4697 34.958C10.5708 35.8569 10.0655 37.0764 10.0654 38.3477C10.0654 39.619 10.5708 40.8384 11.4697 41.7373C12.3687 42.6362 13.5881 43.1416 14.8594 43.1416C16.1304 43.1415 17.3492 42.636 18.248 41.7373C19.147 40.8384 19.6523 39.619 19.6523 38.3477C19.6523 37.0764 19.147 35.8569 18.248 34.958C17.3492 34.0594 16.1304 33.5548 14.8594 33.5547ZM28.041 34.7529C26.0488 34.7529 24.4464 36.3554 24.4463 38.3477C24.4463 40.3399 26.0487 41.9434 28.041 41.9434H44.8184C46.8106 41.9433 48.4131 40.3399 48.4131 38.3477C48.413 36.3555 46.8105 34.753 44.8184 34.7529H28.041ZM20.8506 9.58691C18.8585 9.58703 17.2561 11.1896 17.2559 13.1816C17.2559 15.1739 18.8584 16.7772 20.8506 16.7773H37.6279C39.6202 16.7773 41.2227 15.1739 41.2227 13.1816C41.2224 11.1895 39.6201 9.58691 37.6279 9.58691H20.8506Z" fill="#CDE4F2"/>
<path d="M14.8604 52.7283C16.1315 52.7284 17.3502 53.2338 18.249 54.1326C19.148 55.0315 19.6533 56.2509 19.6533 57.5222C19.6532 58.7934 19.1479 60.012 18.249 60.9109C17.3502 61.8097 16.1315 62.3151 14.8604 62.3152C13.589 62.3152 12.3697 61.8098 11.4707 60.9109C10.5719 60.012 10.0665 58.7934 10.0664 57.5222C10.0664 56.2509 10.5718 55.0315 11.4707 54.1326C12.3697 53.2336 13.5891 52.7283 14.8604 52.7283ZM44.8193 53.9265C45.8248 53.9266 46.7308 54.3353 47.3818 54.9958C45.319 56.6372 43.6293 58.7265 42.459 61.1169H28.042C26.0498 61.1169 24.4475 59.5143 24.4473 57.5222C24.4473 55.5299 26.0497 53.9265 28.042 53.9265H44.8193ZM14.8604 33.5544C16.1315 33.5546 17.3502 34.0599 18.249 34.9587C19.148 35.8577 19.6533 37.0771 19.6533 38.3484C19.6532 39.6195 19.1479 40.8382 18.249 41.7371C17.3502 42.6359 16.1315 43.1412 14.8604 43.1414C13.589 43.1414 12.3697 42.636 11.4707 41.7371C10.5719 40.8382 10.0665 39.6195 10.0664 38.3484C10.0664 37.0771 10.5718 35.8577 11.4707 34.9587C12.3697 34.0598 13.589 33.5544 14.8604 33.5544ZM44.8193 34.7527C46.8115 34.7528 48.4141 36.3562 48.4141 38.3484C48.4138 40.3404 46.8114 41.943 44.8193 41.9431H28.042C26.0499 41.9431 24.4475 40.3405 24.4473 38.3484C24.4473 36.3561 26.0497 34.7527 28.042 34.7527H44.8193Z" fill="#0578BE"/>
</svg>
