<svg width="143" height="101" viewBox="0 0 143 101" fill="none" xmlns="http://www.w3.org/2000/svg">
<path d="M130.655 32C132.864 32 134.655 33.7909 134.655 36V88.6934C134.655 90.9025 132.864 92.6934 130.655 92.6934H61.9297C59.7205 92.6934 57.9297 90.9025 57.9297 88.6934V36C57.9297 33.7909 59.7205 32 61.9297 32H130.655ZM65.9492 38.8711C64.6845 38.8712 63.6593 39.8964 63.6592 41.1611C63.6592 42.426 64.6844 43.4521 65.9492 43.4521H114.046C115.311 43.4521 116.336 42.426 116.336 41.1611C116.336 39.8964 115.311 38.8711 114.046 38.8711H65.9492ZM120.912 38.8711C119.647 38.8711 118.621 39.8964 118.621 41.1611C118.621 42.426 119.647 43.4521 120.912 43.4521C122.177 43.4519 123.202 42.4259 123.202 41.1611C123.202 39.8965 122.177 38.8713 120.912 38.8711ZM127.783 38.8711C126.519 38.8713 125.493 39.8965 125.493 41.1611C125.493 42.4259 126.519 43.4519 127.783 43.4521C129.048 43.4521 130.074 42.426 130.074 41.1611C130.074 39.8964 129.048 38.8711 127.783 38.8711Z" fill="#0578BE"/>
<path d="M32.64 31.5914L33.9982 36.1274L35.3564 40.6634L39.4311 54.2715L40.7894 58.8075L42.1476 63.3436L43.3808 62.9743C53.0057 60.0923 63.3798 61.1564 72.2212 65.9231L80.2521 70.2529C81.9467 71.1665 84.0033 70.9677 85.4921 69.7496C86.9809 68.5315 87.5942 66.5562 87.0424 64.7134L80.7775 43.791L75.6544 26.6816L69.3896 5.75921C68.842 3.93062 67.2398 2.60321 65.3266 2.40379C64.7058 2.34252 64.0765 2.40739 63.4953 2.58141C62.3188 2.9337 61.2965 3.74953 60.6907 4.87312L56.3468 12.9083C51.5801 21.7497 43.4981 28.3401 33.8732 31.2221C33.4621 31.3452 33.051 31.4683 32.64 31.5914Z" fill="#CDE4F2"/>
<path d="M8.15006 48.8123C6.65176 43.8085 9.50185 38.5221 14.5057 37.0238L32.6498 31.5908L40.7992 58.807L42.1575 63.343L47.5904 81.4872C48.3417 83.9961 46.9216 86.6301 44.4126 87.3814L35.3405 90.0979C32.8315 90.8491 30.1975 89.4291 29.4462 86.9201L24.0133 68.776C19.0095 70.2743 13.7231 67.4242 12.2248 62.4204L8.15006 48.8123Z" fill="#0578BE"/>
<path d="M82.7616 35.548C82.7609 35.5456 82.7602 35.5433 82.7595 35.5409L82.7638 35.5551C82.7631 35.5527 82.7623 35.5504 82.7616 35.548C83.9427 39.5005 83.0489 43.4252 80.7872 45.4609L75.6641 28.3516C78.6723 28.8092 81.5761 31.5969 82.7616 35.548Z" fill="#F7A833"/>
<path d="M128.054 81.097C128.382 80.9379 128.779 80.9728 129.07 81.1862L142.024 90.4942C142.36 90.7348 142.493 91.1538 142.364 91.534C142.234 91.9143 141.862 92.1703 141.441 92.1703H135.276L138.874 99.065C139.194 99.678 138.935 100.423 138.296 100.729C137.656 101.036 136.879 100.788 136.559 100.175L132.96 93.28L129.264 98.0058C129.013 98.3278 128.576 98.4558 128.18 98.3317C127.783 98.2075 127.516 97.8506 127.516 97.4509V81.9312C127.516 81.5781 127.722 81.2561 128.054 81.097Z" fill="#F7A833"/>
</svg>
