<svg width="140" height="84" viewBox="0 0 140 84" fill="none" xmlns="http://www.w3.org/2000/svg">
<path d="M69.8253 58.1956C72.4939 60.4827 76.4321 60.4828 79.1007 58.1956L87.6163 50.8952L122.189 76.1591C121.216 76.9324 119.986 77.3965 118.647 77.3965H30.2793C28.9394 77.3965 27.7087 76.9328 26.7355 76.1591L61.3084 50.8952L69.8253 58.1956Z" fill="#CDE4F2"/>
<path d="M123.958 19.7436C124.208 20.3847 124.348 21.081 124.348 21.8105V71.6954C124.348 72.472 124.191 73.2115 123.909 73.8862L89.8405 48.9883L123.958 19.7436Z" fill="#CDE4F2"/>
<path d="M59.0842 48.9883L25.0152 73.8862C24.7341 73.2116 24.5781 72.4718 24.5781 71.6954V21.8105C24.5781 21.0812 24.7169 20.3846 24.9665 19.7436L59.0842 48.9883Z" fill="#CDE4F2"/>
<path d="M118.647 16.1094C120.031 16.1094 121.299 16.6031 122.287 17.4233L77.2454 56.0312C75.6443 57.4033 73.2818 57.4032 71.6807 56.0312L26.6367 17.4233C27.6244 16.6023 28.8945 16.1094 30.2793 16.1094H118.647Z" fill="#CDE4F2"/>
<path d="M130.092 21.4554C132.505 12.3801 127.112 3.03867 118.046 0.591266C108.98 -1.85614 99.6731 3.51706 97.2595 12.5923C94.8459 21.6676 100.239 31.009 109.305 33.4564C111.05 33.9272 112.81 34.1122 114.52 34.0336L125.56 53.155C125.868 53.6885 126.375 54.0755 126.972 54.2366L134.434 56.251C135.674 56.5858 136.938 55.8562 137.268 54.6145L139.255 47.1451C139.585 45.9033 138.853 44.6349 137.612 44.3L133.881 43.2929L134.874 39.5582C135.205 38.3164 134.472 37.048 133.232 36.7131L129.501 35.7059L130.494 31.9712C130.653 31.3737 130.571 30.7412 130.263 30.2077L127.984 26.2602C128.908 24.8182 129.628 23.2013 130.092 21.4554ZM107.207 11.2748C107.47 10.2843 108.116 9.44052 109.002 8.92901C109.888 8.41751 110.942 8.28021 111.931 8.54732C112.921 8.81444 113.765 9.46409 114.278 10.3534C114.792 11.2426 114.932 12.2987 114.669 13.2892C114.406 14.2797 113.76 15.1235 112.874 15.635C111.988 16.1465 110.934 16.2838 109.945 16.0167C108.955 15.7496 108.111 15.0999 107.597 14.2106C107.084 13.3214 106.944 12.2653 107.207 11.2748Z" fill="#F7A833"/>
<path d="M35.0847 73.5706L34.3711 74.0234C33.5113 74.568 33.7283 76.3814 34.8364 77.8755L38.2503 82.4809C39.1643 83.7142 40.3767 84.2984 41.0862 83.8498C41.7977 83.4012 41.7873 82.0552 41.0653 80.7009L38.3672 75.6427C37.4928 74.0025 35.9465 73.028 35.0868 73.5727L35.0847 73.5706Z" fill="#F7A833"/>
<path d="M13.0365 73.5706L13.7501 74.0234C14.6099 74.568 14.3929 76.3814 13.2848 77.8755L9.87091 82.4809C8.95692 83.7142 7.74453 84.2984 7.03504 83.8498C6.32346 83.4012 6.3339 82.0552 7.0559 80.7009L9.75405 75.6427C10.6284 74.0025 12.1747 73.028 13.0344 73.5727L13.0365 73.5706Z" fill="#F7A833"/>
<path d="M12.5493 41.2315L14.9844 39.6748L10.1513 32.1147L7.71626 33.6714L12.5493 41.2315Z" fill="#F7A833"/>
<path d="M4.09558 39.4038L4.65483 40.372L16.9645 32.5906L16.4052 31.6224C14.6565 28.607 10.8983 27.643 8.01238 29.4689L6.15727 30.6416C3.27132 32.4675 2.3469 36.3905 4.09558 39.4038Z" fill="#0578BE"/>
<path d="M40.4233 33.6685L37.9883 32.1118L33.1552 39.6719L35.5903 41.2286L40.4233 33.6685Z" fill="#F7A833"/>
<path d="M44.0408 39.4028L43.4815 40.3711L31.1719 32.5897L31.7311 31.6214C33.4798 28.6082 37.2359 27.6441 40.124 29.4679L41.9791 30.6407C44.865 32.4666 45.7894 36.3896 44.0408 39.4028Z" fill="#0578BE"/>
<path d="M25.1503 30.7075H22.9688V39.9792H25.1503V30.7075Z" fill="#F7A833"/>
<path d="M25.4225 28.5264H22.6955C21.9425 28.5264 21.332 29.2589 21.332 30.1626C21.332 31.0662 21.9425 31.7987 22.6955 31.7987H25.4225C26.1755 31.7987 26.786 31.0662 26.786 30.1626C26.786 29.2589 26.1755 28.5264 25.4225 28.5264Z" fill="#F7A833"/>
<path d="M24.0599 81.8477C37.3133 81.8477 48.0574 71.1038 48.0574 57.8504C48.0574 44.597 37.3133 33.853 24.0599 33.853C10.8065 33.853 0.0625 44.597 0.0625 57.8504C0.0625 71.1038 10.8065 81.8477 24.0599 81.8477Z" fill="#0578BE"/>
<path d="M24.0606 76.6732C13.6833 76.6732 5.23828 68.2303 5.23828 57.8509C5.23828 47.4716 13.6833 39.0308 24.0606 39.0308C34.4379 39.0308 42.8829 47.4737 42.8829 57.853C42.8829 68.2324 34.44 76.6753 24.0606 76.6753V76.6732Z" fill="#CDE4F2"/>
<path d="M24.6076 56.7245C24.4407 56.6431 24.255 56.5972 24.0588 56.5972C23.8627 56.5972 23.6769 56.6431 23.51 56.7245C23.0927 56.929 22.8047 57.3588 22.8047 57.8513C22.8047 58.542 23.3681 59.1054 24.0588 59.1054C24.159 59.1054 24.2571 59.0929 24.351 59.0699C24.7287 58.9781 25.0417 58.7194 25.2003 58.373C25.2733 58.2123 25.315 58.037 25.315 57.8513C25.315 57.3567 25.0271 56.9269 24.6097 56.7245H24.6076ZM24.7767 58.1643C24.6786 58.3918 24.472 58.565 24.2237 58.6171C24.1694 58.6276 24.1152 58.6338 24.0588 58.6338C23.6269 58.6338 23.2742 58.2832 23.2742 57.8492C23.2742 57.5696 23.4203 57.3234 23.6415 57.1856C23.7625 57.1084 23.9044 57.0646 24.0588 57.0646C24.2132 57.0646 24.3551 57.1084 24.4762 57.1856C24.6974 57.3234 24.8434 57.5696 24.8434 57.8492C24.8434 57.9598 24.8205 58.0662 24.7767 58.1622V58.1643Z" fill="#0E509A"/>
<path d="M24.0564 43.1856C23.8393 43.1856 23.6641 43.0103 23.6641 42.7933V40.2829C23.6641 40.0659 23.8393 39.8906 24.0564 39.8906C24.2734 39.8906 24.4487 40.0659 24.4487 40.2829V42.7933C24.4487 43.0103 24.2734 43.1856 24.0564 43.1856Z" fill="#0E509A"/>
<path d="M24.6054 45.8515V56.7234C24.4385 56.642 24.2528 56.5961 24.0566 56.5961C23.8605 56.5961 23.6748 56.642 23.5078 56.7234V45.8515C23.5078 45.549 23.754 45.3027 24.0566 45.3027C24.3592 45.3027 24.6054 45.549 24.6054 45.8515Z" fill="#0E509A"/>
<path d="M29.7001 63.6502C29.5937 63.7588 29.4539 63.8109 29.312 63.8109C29.1701 63.8109 29.0303 63.7567 28.9239 63.6502L24.3748 59.1012C24.3748 59.1012 24.356 59.0803 24.3477 59.072C24.7254 58.9801 25.0384 58.7214 25.197 58.375L29.698 62.8761C29.913 63.0889 29.913 63.4374 29.698 63.6502H29.7001Z" fill="#0E509A"/>
<path d="M13.4429 47.5173C13.3427 47.5173 13.2425 47.4797 13.1653 47.4025L11.3916 45.6288C11.2393 45.4765 11.2393 45.2281 11.3916 45.0737C11.5439 44.9214 11.7922 44.9214 11.9467 45.0737L13.7204 46.8474C13.8727 46.9998 13.8727 47.2481 13.7204 47.4025C13.6432 47.4797 13.543 47.5173 13.4429 47.5173Z" fill="#0E509A"/>
<path d="M9.0003 58.0864H6.48996C6.27294 58.0864 6.09766 57.9111 6.09766 57.6941C6.09766 57.477 6.27294 57.3018 6.48996 57.3018H9.0003C9.21732 57.3018 9.39261 57.477 9.39261 57.6941C9.39261 57.9111 9.21732 58.0864 9.0003 58.0864Z" fill="#0E509A"/>
<path d="M11.5598 70.4758C11.4596 70.4758 11.3594 70.4382 11.2822 70.361C11.1299 70.2087 11.1299 69.9604 11.2822 69.8059L13.0559 68.0322C13.2083 67.8799 13.4566 67.8799 13.611 68.0322C13.7633 68.1845 13.7633 68.4329 13.611 68.5873L11.8373 70.361C11.7601 70.4382 11.6599 70.4758 11.5598 70.4758Z" fill="#0E509A"/>
<path d="M23.9001 75.6519C23.6831 75.6519 23.5078 75.4766 23.5078 75.2596V72.7492C23.5078 72.5322 23.6831 72.3569 23.9001 72.3569C24.1171 72.3569 24.2924 72.5322 24.2924 72.7492V75.2596C24.2924 75.4766 24.1171 75.6519 23.9001 75.6519Z" fill="#0E509A"/>
<path d="M36.2905 70.5864C36.1903 70.5864 36.0902 70.5489 36.013 70.4717L34.2392 68.6979C34.0869 68.5456 34.0869 68.2973 34.2392 68.1429C34.3916 67.9884 34.6399 67.9905 34.7943 68.1429L36.568 69.9166C36.7204 70.0689 36.7204 70.3172 36.568 70.4717C36.4908 70.5489 36.3907 70.5864 36.2905 70.5864Z" fill="#0E509A"/>
<path d="M41.469 58.2431H38.9587C38.7417 58.2431 38.5664 58.0678 38.5664 57.8508C38.5664 57.6338 38.7417 57.4585 38.9587 57.4585H41.469C41.6861 57.4585 41.8614 57.6338 41.8614 57.8508C41.8614 58.0678 41.6861 58.2431 41.469 58.2431Z" fill="#0E509A"/>
<path d="M34.6262 47.6281C34.526 47.6281 34.4258 47.5906 34.3486 47.5133C34.1963 47.361 34.1963 47.1127 34.3486 46.9583L36.1223 45.1846C36.2747 45.0322 36.523 45.0322 36.6774 45.1846C36.8297 45.3369 36.8297 45.5852 36.6774 45.7396L34.9037 47.5133C34.8265 47.5906 34.7263 47.6281 34.6262 47.6281Z" fill="#0E509A"/>
</svg>
