<svg width="84" height="84" viewBox="0 0 84 84" fill="none" xmlns="http://www.w3.org/2000/svg">
<path d="M0.851562 10.4996V73.497C0.851562 79.2882 5.55996 83.9966 11.3511 83.9966H53.3494C59.1406 83.9966 63.849 79.2882 63.849 73.497V27.9715C63.849 25.1826 62.7498 22.5085 60.7812 20.5398L43.2928 3.06784C41.3241 1.09917 38.6664 0 35.8775 0H11.3511C5.55996 0 0.851562 4.7084 0.851562 10.4996Z" fill="#CDE4F2"/>
<path d="M60.7777 20.5394L43.2894 3.06743C42.3339 2.11201 41.2162 1.36138 40 0.841797V20.0442C40 22.2769 41.8099 24.0868 44.0426 24.0868H63.1061C62.5849 22.7697 61.7981 21.5598 60.7777 20.5394Z" fill="#0578BE"/>
<path d="M39.5054 34.6453L43.5647 38.705H17.398C16.541 38.705 15.8516 39.3946 15.8516 40.2516C15.8516 41.1087 16.541 41.7982 17.398 41.7982H43.5647L39.5054 45.8579C38.8997 46.4637 38.8997 47.4432 39.5054 48.0425C40.1111 48.6418 41.0905 48.6482 41.6897 48.0425L48.3973 41.3471C49.003 40.7414 49.003 39.7619 48.3973 39.1626L41.6961 32.4543C41.0905 31.8486 40.1111 31.8486 39.5118 32.4543C38.9126 33.06 38.9061 34.0395 39.5118 34.6388L39.5054 34.6453ZM25.201 51.1421C25.8067 50.5363 25.8067 49.5568 25.201 48.9575C24.5953 48.3582 23.6159 48.3518 23.0167 48.9575L16.309 55.6529C15.7034 56.2586 15.7034 57.2381 16.309 57.8374L23.0102 64.5457C23.6159 65.1514 24.5953 65.1514 25.1945 64.5457C25.7938 63.94 25.8002 62.9605 25.1945 62.3612L21.1352 58.3014H47.3019C48.1589 58.3014 48.8483 57.6119 48.8483 56.7548C48.8483 55.8978 48.1589 55.2083 47.3019 55.2083H21.1352L25.1945 51.1485L25.201 51.1421Z" fill="#0578BE"/>
<path d="M80.6932 37.7441C80.2109 37.27 79.5477 37 78.8645 37C78.1812 37 77.5181 37.27 77.0358 37.7441L75.7831 38.9755L81.142 44.2433L82.3946 43.012C82.8769 42.5378 83.1516 41.8859 83.1516 41.2143C83.1516 40.5426 82.8769 39.8907 82.3946 39.4166L80.6932 37.7441ZM65.0855 42.7683C65.2932 42.5642 65.6348 42.5642 65.8425 42.7683L67.8118 44.7043L53.7315 58.5456C53.3429 58.9275 53.0616 59.395 52.9142 59.9152L51.052 66.3223L49.3238 68.0146C48.6941 68.6336 48.6941 69.6345 49.3238 70.2468C49.9535 70.8592 50.9717 70.8658 51.5946 70.2468L53.3162 68.5545L59.8339 66.724C60.3563 66.5791 60.8386 66.3025 61.2272 65.9206L78.1075 49.3334C78.5898 48.8593 78.8645 48.2074 78.8645 47.5357C78.8645 46.8641 78.5898 46.2122 78.1075 45.7381L74.2626 41.9584C73.7803 41.4843 73.1171 41.2143 72.4339 41.2143C71.7506 41.2143 71.0874 41.4843 70.6051 41.9584L70.0894 42.4654L68.12 40.5361C66.653 39.094 64.2817 39.094 62.8147 40.5361L55.7544 47.4699C55.1248 48.0889 55.1248 49.0898 55.7544 49.7022C56.3841 50.3145 57.4023 50.3211 58.0252 49.7022L65.0855 42.7683Z" fill="#F7A833"/>
<path d="M55.9792 60.8635L54.8203 64.8474L58.8729 63.7082L55.9792 60.8635Z" fill="#0578BE"/>
</svg>
