<svg width="110" height="84" viewBox="0 0 110 84" fill="none" xmlns="http://www.w3.org/2000/svg">
<path d="M40.5332 45.2208L70.6614 10.6182L100.79 45.2208" stroke="#F7A833" stroke-width="1.4653"/>
<path d="M70.6611 9.79138C71.2825 9.79138 71.786 10.2951 71.7861 10.9164C71.7861 11.5378 71.2825 12.0414 70.6611 12.0414C70.0398 12.0412 69.5361 11.5377 69.5361 10.9164C69.5363 10.2952 70.0399 9.79154 70.6611 9.79138Z" fill="#0578BE" stroke="#F7A833" stroke-width="0.732652"/>
<path d="M104.966 44.6243C107.602 44.6243 109.738 46.761 109.738 49.3967V79.2268C109.738 81.8627 107.602 84.0002 104.966 84.0002H36.3564C33.7208 83.9999 31.584 81.8625 31.584 79.2268V49.3967C31.5842 46.7612 33.7209 44.6246 36.3564 44.6243H104.966ZM37.3652 47.0139C35.4742 47.11 33.9699 48.6733 33.9697 50.5881V78.0315C33.9697 80.0084 35.5729 81.6115 37.5498 81.6116H103.772C105.749 81.6114 107.352 80.0084 107.352 78.0315V50.5881C107.351 48.6731 105.847 47.1097 103.956 47.0139L103.772 47.009H37.5498L37.3652 47.0139ZM103.896 48.2053C105.156 48.2695 106.158 49.3117 106.158 50.5881V78.0315C106.158 79.3494 105.09 80.4181 103.772 80.4182H37.5498C36.2319 80.4181 35.1631 79.3494 35.1631 78.0315V50.5881L35.166 50.4651C35.2302 49.2045 36.2733 48.2025 37.5498 48.2024H103.772L103.896 48.2053ZM47.2598 68.6497H49.2383L49.8662 66.5989H53.0234L53.6514 68.6497H55.6299L52.5615 59.9973H50.3164L47.2598 68.6497ZM56.7256 68.6497H59.9658C60.6213 68.6496 61.1863 68.5512 61.6602 68.3547C62.1378 68.1543 62.5051 67.8676 62.7617 67.4944C63.0184 67.1211 63.1465 66.6732 63.1465 66.1506C63.1465 65.6987 63.0758 65.3368 62.9336 65.0657C62.7954 64.7907 62.6099 64.5821 62.377 64.4407C62.144 64.2953 61.883 64.194 61.5947 64.135V64.0754C61.879 64.0243 62.12 63.9143 62.3174 63.7454C62.5148 63.5764 62.6649 63.3601 62.7676 63.0969C62.8741 62.8337 62.9277 62.5392 62.9277 62.2131C62.9277 61.4038 62.6313 60.8381 62.0391 60.5159C61.4467 60.1937 60.5739 60.0325 59.4209 60.0325H56.7256V68.6497ZM64.876 68.6497H69.8643V67.1409H66.7129V64.9182H69.6445V63.4211H66.7129V61.5295H69.8643V60.0325H64.876V68.6497ZM71.6768 68.6497H73.5127V65.343H74.4902L76.5576 68.6497H78.5957L76.0479 64.8948C76.3322 64.7651 76.597 64.5981 76.8418 64.3938C77.0866 64.1895 77.2845 63.9404 77.4346 63.6458C77.5846 63.351 77.6592 63.0065 77.6592 62.6135C77.6591 62.0322 77.5348 61.5512 77.2861 61.1702C77.0373 60.789 76.656 60.5033 76.1426 60.3147C75.6333 60.1262 74.9857 60.0325 74.2002 60.0325H71.6768V68.6497ZM78.8379 61.553H81.1895V68.6497H83.0264V61.553H85.3779V60.0325H78.8379V61.553ZM88.3164 59.9973L85.2598 68.6497H87.2383L87.8662 66.5989H91.0234L91.6514 68.6497H93.6299L90.5615 59.9973H88.3164ZM59.6992 64.8948C60.0901 64.8948 60.3961 64.9402 60.6172 65.0305C60.8421 65.1208 61.0019 65.2466 61.0967 65.4075C61.1915 65.5686 61.2393 65.7558 61.2393 65.968C61.2392 66.3255 61.1302 66.6104 60.9131 66.8225C60.6959 67.0345 60.3112 67.1408 59.7588 67.1409H58.5615V64.8948H59.6992ZM51.6016 61.9065C51.6687 62.1226 51.7337 62.3369 51.7969 62.5491C51.864 62.7573 51.9175 62.9282 51.957 63.0618L52.585 65.0657H50.3281L50.9502 63.0618C50.9778 62.9714 51.0228 62.8197 51.0859 62.6077C51.1491 62.3955 51.2141 62.1715 51.2812 61.9358C51.3523 61.6963 51.4078 61.4962 51.4473 61.3352C51.4867 61.4962 51.5384 61.6866 51.6016 61.9065ZM89.6016 61.9065C89.6687 62.1226 89.7337 62.3369 89.7969 62.5491C89.864 62.7573 89.9175 62.9282 89.957 63.0618L90.585 65.0657H88.3281L88.9502 63.0618C88.9778 62.9714 89.0228 62.8197 89.0859 62.6077C89.1491 62.3955 89.2141 62.1715 89.2812 61.9358C89.3523 61.6963 89.4078 61.4962 89.4473 61.3352C89.4867 61.4962 89.5384 61.6866 89.6016 61.9065ZM74.0693 61.5295C74.6616 61.5295 75.0985 61.6155 75.3789 61.7883C75.6632 61.9612 75.8057 62.2527 75.8057 62.6614C75.8056 63.0542 75.6727 63.3526 75.4082 63.5569C75.1476 63.7572 74.7134 63.8576 74.1055 63.8577H73.5127V61.5295H74.0693ZM59.5273 61.5295C60.0526 61.5295 60.4359 61.6019 60.6768 61.7473C60.9214 61.8887 61.0438 62.1245 61.0439 62.4543C61.0439 62.7805 60.9407 63.0285 60.7354 63.1975C60.5299 63.3624 60.1608 63.4446 59.6279 63.4446H58.5615V61.5295H59.5273Z" fill="#0578BE"/>
<path d="M19.9835 19.1677L20.804 21.9082L21.6246 24.6486L24.0863 32.8699L24.9069 35.6103L25.7275 38.3507L26.4725 38.1276C32.2874 36.3865 38.5548 37.0293 43.8963 39.9091L48.7481 42.5249C49.7719 43.0769 51.0144 42.9568 51.9138 42.2209C52.8133 41.485 53.1838 40.2916 52.8504 39.1783L49.0656 26.5381L45.9705 16.2015L42.1856 3.56135C41.8548 2.45661 40.8868 1.65466 39.7309 1.53418C39.3559 1.49717 38.9757 1.53636 38.6246 1.6415C37.9138 1.85433 37.2962 2.34721 36.9302 3.02602L34.3058 7.88044C31.4261 13.2219 26.5434 17.2035 20.7285 18.9446C20.4802 19.019 20.2318 19.0934 19.9835 19.1677Z" fill="#CDE4F2"/>
<path d="M5.18411 29.5723C4.27892 26.5492 6.00079 23.3555 9.02382 22.4503L19.9855 19.168L24.909 35.6105L25.7295 38.351L29.0118 49.3127C29.4657 50.8285 28.6078 52.4198 27.092 52.8736L21.6111 54.5148C20.0953 54.9687 18.504 54.1107 18.0501 52.5949L14.7678 41.6332C11.7448 42.5384 8.55102 40.8166 7.64583 37.7935L5.18411 29.5723Z" fill="#0578BE"/>
<path d="M50.2626 21.5585C50.2622 21.5571 50.2617 21.5557 50.2613 21.5542L50.2639 21.5628C50.2634 21.5614 50.263 21.5599 50.2626 21.5585C50.9761 23.9464 50.4361 26.3175 49.0697 27.5473L45.9746 17.2108C47.7921 17.4873 49.5463 19.1715 50.2626 21.5585Z" fill="#F7A833"/>
</svg>
