<svg width="174" height="84" viewBox="0 0 174 84" fill="none" xmlns="http://www.w3.org/2000/svg">
<path d="M0.558594 10.7442C0.558594 4.81033 5.36893 0 11.3028 0H82.6051C88.539 0 93.3493 4.81034 93.3493 10.7442V37.1163C93.3493 43.0501 88.539 47.8605 82.6051 47.8605L33.7679 47.8605H17.1632H11.3028C5.36893 47.8605 0.558594 43.0501 0.558594 37.1163V10.7442Z" fill="#CDE4F2"/>
<path d="M17.1632 64.4651L33.7679 47.8605H17.1632V64.4651Z" fill="#CDE4F2"/>
<circle cx="20.0945" cy="23.4419" r="3.90698" fill="#0578BE"/>
<circle cx="37.6765" cy="23.4419" r="3.90698" fill="#0578BE"/>
<circle cx="55.2546" cy="23.4419" r="3.90698" fill="#0578BE"/>
<circle cx="72.8367" cy="23.4419" r="3.90698" fill="#0578BE"/>
<path d="M173.441 30.2793C173.441 24.3455 168.631 19.5352 162.697 19.5352H91.3949C85.461 19.5352 80.6507 24.3455 80.6507 30.2793V56.6514C80.6507 62.5853 85.461 67.3956 91.3949 67.3956L140.232 67.3956H156.837H162.697C168.631 67.3956 173.441 62.5853 173.441 56.6514V30.2793Z" fill="#F7A833"/>
<path d="M156.837 84.0003L140.232 67.3956H156.837V84.0003Z" fill="#F7A833"/>
<circle cx="3.90698" cy="3.90698" r="3.90698" transform="matrix(-1 0 0 1 157.816 39.0701)" fill="white"/>
<circle cx="3.90698" cy="3.90698" r="3.90698" transform="matrix(-1 0 0 1 140.234 39.0701)" fill="white"/>
<circle cx="3.90698" cy="3.90698" r="3.90698" transform="matrix(-1 0 0 1 122.652 39.0701)" fill="white"/>
<circle cx="3.90698" cy="3.90698" r="3.90698" transform="matrix(-1 0 0 1 105.07 39.0701)" fill="white"/>
</svg>
