<svg width="74" height="84" viewBox="0 0 74 84" fill="none" xmlns="http://www.w3.org/2000/svg">
<path d="M38.8262 0C42.3763 0 45.4772 1.93284 47.125 4.79395H48.4131C53.7009 4.79395 58 9.09305 58 14.3809V51.1357C53.9899 51.2367 50.3093 52.6642 47.3799 54.9951C46.7289 54.3351 45.8234 53.9268 44.8184 53.9268H28.041C26.0488 53.9268 24.4464 55.5293 24.4463 57.5215C24.4463 59.5138 26.0487 61.1172 28.041 61.1172H42.457C41.3018 63.4771 40.6524 66.1299 40.6523 68.9346C40.6523 71.7166 41.2909 74.3497 42.4287 76.6953H10.0654C4.77764 76.6953 0.478516 72.3962 0.478516 67.1084V14.3809C0.478516 9.09307 4.77764 4.79397 10.0654 4.79395H11.3535C13.0013 1.93286 16.1022 3.1145e-05 19.6523 0H38.8262ZM14.8594 52.7285C13.5882 52.7285 12.3686 53.2331 11.4697 54.1318C10.5708 55.0307 10.0655 56.2503 10.0654 57.5215C10.0654 58.7928 10.5708 60.0122 11.4697 60.9111C12.3687 61.81 13.5881 62.3154 14.8594 62.3154C16.1305 62.3153 17.3492 61.8099 18.248 60.9111C19.147 60.0122 19.6523 58.7928 19.6523 57.5215C19.6523 56.2503 19.1469 55.0307 18.248 54.1318C17.3492 53.2332 16.1303 52.7286 14.8594 52.7285ZM14.8594 33.5547C13.5882 33.5547 12.3686 34.0592 11.4697 34.958C10.5708 35.8569 10.0655 37.0764 10.0654 38.3477C10.0654 39.619 10.5708 40.8384 11.4697 41.7373C12.3687 42.6362 13.5881 43.1416 14.8594 43.1416C16.1304 43.1415 17.3492 42.636 18.248 41.7373C19.147 40.8384 19.6523 39.619 19.6523 38.3477C19.6523 37.0764 19.147 35.8569 18.248 34.958C17.3492 34.0594 16.1304 33.5548 14.8594 33.5547ZM28.041 34.7529C26.0488 34.7529 24.4464 36.3554 24.4463 38.3477C24.4463 40.3399 26.0487 41.9434 28.041 41.9434H44.8184C46.8106 41.9433 48.4131 40.3399 48.4131 38.3477C48.413 36.3555 46.8105 34.753 44.8184 34.7529H28.041ZM20.8506 9.58691C18.8585 9.58703 17.2561 11.1896 17.2559 13.1816C17.2559 15.1739 18.8584 16.7772 20.8506 16.7773H37.6279C39.6202 16.7773 41.2227 15.1739 41.2227 13.1816C41.2224 11.1895 39.6201 9.58691 37.6279 9.58691H20.8506Z" fill="#CDE4F2"/>
<path d="M14.8594 52.7283C16.1305 52.7284 17.3492 53.2338 18.248 54.1326C19.147 55.0315 19.6523 56.2509 19.6523 57.5222C19.6522 58.7934 19.1469 60.012 18.248 60.9109C17.3492 61.8097 16.1305 62.3151 14.8594 62.3152C13.5881 62.3152 12.3687 61.8098 11.4697 60.9109C10.5709 60.012 10.0655 58.7934 10.0654 57.5222C10.0654 56.2509 10.5708 55.0315 11.4697 54.1326C12.3687 53.2336 13.5881 52.7283 14.8594 52.7283ZM44.8184 53.9265C45.8238 53.9266 46.7298 54.3353 47.3809 54.9958C45.318 56.6372 43.6284 58.7265 42.458 61.1169H28.041C26.0489 61.1169 24.4465 59.5143 24.4463 57.5222C24.4463 55.5299 26.0487 53.9265 28.041 53.9265H44.8184ZM14.8594 33.5544C16.1305 33.5546 17.3492 34.0599 18.248 34.9587C19.147 35.8577 19.6523 37.0771 19.6523 38.3484C19.6522 39.6195 19.1469 40.8382 18.248 41.7371C17.3492 42.6359 16.1305 43.1412 14.8594 43.1414C13.5881 43.1414 12.3687 42.636 11.4697 41.7371C10.5709 40.8382 10.0656 39.6195 10.0654 38.3484C10.0654 37.0771 10.5708 35.8577 11.4697 34.9587C12.3687 34.0598 13.5881 33.5544 14.8594 33.5544ZM44.8184 34.7527C46.8106 34.7528 48.4131 36.3562 48.4131 38.3484C48.4128 40.3404 46.8104 41.943 44.8184 41.9431H28.041C26.0489 41.9431 24.4465 40.3405 24.4463 38.3484C24.4463 36.3561 26.0487 34.7527 28.041 34.7527H44.8184Z" fill="#0578BE"/>
<path fill-rule="evenodd" clip-rule="evenodd" d="M58.4785 84C50.1942 84 43.4785 77.2843 43.4785 69C43.4785 60.7157 50.1942 54 58.4785 54C66.7628 54 73.4785 60.7157 73.4785 69C73.4785 77.2843 66.7628 84 58.4785 84ZM58.4785 57.7998C64.6641 57.7998 69.6787 62.8144 69.6787 69C69.6787 75.1856 64.6641 80.2002 58.4785 80.2002C52.2929 80.2002 47.2783 75.1856 47.2783 69C47.2783 62.8144 52.2929 57.7998 58.4785 57.7998Z" fill="#B33D3D"/>
<path d="M50.7574 60.2203C50.4637 59.9266 49.9887 59.9266 49.6981 60.2203C49.4074 60.5141 49.4043 60.9891 49.6949 61.2828L66.1949 77.7828C66.4887 78.0766 66.9637 78.0766 67.2543 77.7828C67.5449 77.4891 67.5481 77.0141 67.2543 76.7234L64.5199 73.9891C65.0574 73.9141 65.4731 73.4484 65.4731 72.8891C65.4731 72.6359 65.3887 72.3922 65.2293 72.1953L64.9231 71.8141C63.9887 70.6391 63.4762 69.1797 63.4762 67.6766V66.9984C63.4762 64.5797 61.7574 62.5609 59.4762 62.0984V61.9984C59.4762 61.4453 59.0293 60.9984 58.4762 60.9984C57.9231 60.9984 57.4762 61.4453 57.4762 61.9984V62.0984C56.2699 62.3422 55.2199 63.0234 54.5012 63.9641L50.7574 60.2203ZM53.4762 67.6734C53.4762 69.1766 52.9637 70.6359 52.0262 71.8109L51.7199 72.1922C51.5637 72.3891 51.4762 72.6328 51.4762 72.8859C51.4762 73.4984 51.9731 73.9953 52.5856 73.9953H59.9387L53.4731 67.5297V67.6703L53.4762 67.6734ZM58.4762 76.9984C59.4074 76.9984 60.1918 76.3609 60.4137 75.4984H56.5387C56.7606 76.3609 57.5449 76.9984 58.4762 76.9984Z" fill="#B33D3D"/>
</svg>
