<svg width="74" height="84" viewBox="0 0 74 84" fill="none" xmlns="http://www.w3.org/2000/svg">
<path d="M38.8262 0C42.3763 0 45.4772 1.93284 47.125 4.79395H48.4131C53.7009 4.79395 58 9.09305 58 14.3809V51.1357C53.9899 51.2367 50.3093 52.6642 47.3799 54.9951C46.7289 54.3351 45.8234 53.9268 44.8184 53.9268H28.041C26.0488 53.9268 24.4464 55.5293 24.4463 57.5215C24.4463 59.5138 26.0487 61.1172 28.041 61.1172H42.457C41.3018 63.4771 40.6524 66.1299 40.6523 68.9346C40.6523 71.7166 41.2909 74.3497 42.4287 76.6953H10.0654C4.77764 76.6953 0.478516 72.3962 0.478516 67.1084V14.3809C0.478516 9.09307 4.77764 4.79397 10.0654 4.79395H11.3535C13.0013 1.93286 16.1022 3.1145e-05 19.6523 0H38.8262ZM14.8594 52.7285C13.5882 52.7285 12.3686 53.2331 11.4697 54.1318C10.5708 55.0307 10.0655 56.2503 10.0654 57.5215C10.0654 58.7928 10.5708 60.0122 11.4697 60.9111C12.3687 61.81 13.5881 62.3154 14.8594 62.3154C16.1305 62.3153 17.3492 61.8099 18.248 60.9111C19.147 60.0122 19.6523 58.7928 19.6523 57.5215C19.6523 56.2503 19.1469 55.0307 18.248 54.1318C17.3492 53.2332 16.1303 52.7286 14.8594 52.7285ZM14.8594 33.5547C13.5882 33.5547 12.3686 34.0592 11.4697 34.958C10.5708 35.8569 10.0655 37.0764 10.0654 38.3477C10.0654 39.619 10.5708 40.8384 11.4697 41.7373C12.3687 42.6362 13.5881 43.1416 14.8594 43.1416C16.1304 43.1415 17.3492 42.636 18.248 41.7373C19.147 40.8384 19.6523 39.619 19.6523 38.3477C19.6523 37.0764 19.147 35.8569 18.248 34.958C17.3492 34.0594 16.1304 33.5548 14.8594 33.5547ZM28.041 34.7529C26.0488 34.7529 24.4464 36.3554 24.4463 38.3477C24.4463 40.3399 26.0487 41.9434 28.041 41.9434H44.8184C46.8106 41.9433 48.4131 40.3399 48.4131 38.3477C48.413 36.3555 46.8105 34.753 44.8184 34.7529H28.041ZM20.8506 9.58691C18.8585 9.58703 17.2561 11.1896 17.2559 13.1816C17.2559 15.1739 18.8584 16.7772 20.8506 16.7773H37.6279C39.6202 16.7773 41.2227 15.1739 41.2227 13.1816C41.2224 11.1895 39.6201 9.58691 37.6279 9.58691H20.8506Z" fill="#CDE4F2"/>
<path d="M43.3906 68.9348C43.3906 72.9304 44.9778 76.7623 47.8031 79.5876C50.6284 82.4128 54.4603 84.0001 58.4558 84.0001C62.4514 84.0001 66.2833 82.4128 69.1086 79.5876C71.9338 76.7623 73.5211 72.9304 73.5211 68.9348C73.5211 64.9393 71.9338 61.1074 69.1086 58.2821C66.2833 55.4569 62.4514 53.8696 58.4558 53.8696C54.4603 53.8696 50.6284 55.4569 47.8031 58.2821C44.9778 61.1074 43.3906 64.9393 43.3906 68.9348ZM57.0494 60.7843C57.0552 60.7372 57.0611 60.6902 57.0729 60.6431C57.0906 60.5489 57.12 60.4607 57.1553 60.3783C57.2259 60.2076 57.3318 60.0546 57.4554 59.931C57.7085 59.678 58.0616 59.5191 58.4558 59.5191C59.2385 59.5191 59.8682 60.1488 59.8682 60.9314V68.1816C61.5395 69.2997 63.2167 70.4119 64.888 71.5301C65.5353 71.9655 65.7119 72.8365 65.2823 73.4897C64.8527 74.1429 63.9699 74.3136 63.3226 73.884C61.4395 72.6305 59.5563 71.3712 57.6732 70.1177C57.479 69.9882 57.3201 69.8117 57.2141 69.6116C57.1612 69.5116 57.12 69.4056 57.0906 69.2938C57.0788 69.235 57.067 69.182 57.0611 69.1232C57.0552 69.0937 57.0552 69.0643 57.0552 69.0349C57.0552 69.0055 57.0552 68.9819 57.0552 68.9466C57.0552 66.2808 57.0552 63.6091 57.0552 60.9256C57.0552 60.8903 57.0552 60.8432 57.0611 60.7961L57.0494 60.7843Z" fill="#F7A833"/>
<path d="M43.3906 68.9348C43.3906 72.9304 44.9778 76.7623 47.8031 79.5876C50.6284 82.4128 54.4603 84.0001 58.4558 84.0001C62.4514 84.0001 66.2833 82.4128 69.1086 79.5876C71.9338 76.7623 73.5211 72.9304 73.5211 68.9348C73.5211 64.9393 71.9338 61.1074 69.1086 58.2821C66.2833 55.4569 62.4514 53.8696 58.4558 53.8696C54.4603 53.8696 50.6284 55.4569 47.8031 58.2821C44.9778 61.1074 43.3906 64.9393 43.3906 68.9348ZM57.0494 60.7843C57.0552 60.7372 57.0611 60.6902 57.0729 60.6431C57.0906 60.5489 57.12 60.4607 57.1553 60.3783C57.2259 60.2076 57.3318 60.0546 57.4554 59.931C57.7085 59.678 58.0616 59.5191 58.4558 59.5191C59.2385 59.5191 59.8682 60.1488 59.8682 60.9314V68.1816C61.5395 69.2997 63.2167 70.4119 64.888 71.5301C65.5353 71.9655 65.7119 72.8365 65.2823 73.4897C64.8527 74.1429 63.9699 74.3136 63.3226 73.884C61.4395 72.6305 59.5563 71.3712 57.6732 70.1177C57.479 69.9882 57.3201 69.8117 57.2141 69.6116C57.1612 69.5116 57.12 69.4056 57.0906 69.2938C57.0788 69.235 57.067 69.182 57.0611 69.1232C57.0552 69.0937 57.0552 69.0643 57.0552 69.0349C57.0552 69.0055 57.0552 68.9819 57.0552 68.9466C57.0552 66.2808 57.0552 63.6091 57.0552 60.9256C57.0552 60.8903 57.0552 60.8432 57.0611 60.7961L57.0494 60.7843Z" fill="#F7A833"/>
<path d="M58.4553 59.519C57.6726 59.519 57.043 60.1487 57.043 60.9314V68.9348C57.043 69.4056 57.2784 69.847 57.6726 70.1118L63.3221 73.8781C63.9694 74.3136 64.8463 74.137 65.2818 73.4838C65.7172 72.8306 65.5407 71.9596 64.8875 71.5241L59.8677 68.1815V60.9314C59.8677 60.1487 59.238 59.519 58.4553 59.519Z" fill="white"/>
<path d="M14.8604 52.7283C16.1315 52.7284 17.3502 53.2338 18.249 54.1326C19.148 55.0315 19.6533 56.2509 19.6533 57.5222C19.6532 58.7934 19.1479 60.012 18.249 60.9109C17.3502 61.8097 16.1315 62.3151 14.8604 62.3152C13.589 62.3152 12.3697 61.8098 11.4707 60.9109C10.5719 60.012 10.0665 58.7934 10.0664 57.5222C10.0664 56.2509 10.5718 55.0315 11.4707 54.1326C12.3697 53.2336 13.5891 52.7283 14.8604 52.7283ZM44.8193 53.9265C45.8248 53.9266 46.7308 54.3353 47.3818 54.9958C45.319 56.6372 43.6293 58.7265 42.459 61.1169H28.042C26.0498 61.1169 24.4475 59.5143 24.4473 57.5222C24.4473 55.5299 26.0497 53.9265 28.042 53.9265H44.8193ZM14.8604 33.5544C16.1315 33.5546 17.3502 34.0599 18.249 34.9587C19.148 35.8577 19.6533 37.0771 19.6533 38.3484C19.6532 39.6195 19.1479 40.8382 18.249 41.7371C17.3502 42.6359 16.1315 43.1412 14.8604 43.1414C13.589 43.1414 12.3697 42.636 11.4707 41.7371C10.5719 40.8382 10.0665 39.6195 10.0664 38.3484C10.0664 37.0771 10.5718 35.8577 11.4707 34.9587C12.3697 34.0598 13.589 33.5544 14.8604 33.5544ZM44.8193 34.7527C46.8115 34.7528 48.4141 36.3562 48.4141 38.3484C48.4138 40.3404 46.8114 41.943 44.8193 41.9431H28.042C26.0499 41.9431 24.4475 40.3405 24.4473 38.3484C24.4473 36.3561 26.0497 34.7527 28.042 34.7527H44.8193Z" fill="#0578BE"/>
</svg>
