<svg width="82" height="84" viewBox="0 0 82 84" fill="none" xmlns="http://www.w3.org/2000/svg">
<path d="M35.0264 0C37.8151 0.000118262 40.4729 1.09891 42.4414 3.06738L59.9297 20.54C61.8982 22.5087 62.9971 25.1828 62.9971 27.9717V40.3096C62.1149 40.7342 61.3738 41.4324 60.8984 42.3203L60.8965 42.3232L46.5547 69.2432C45.7838 70.6897 45.8174 72.4388 46.6484 73.8545C47.4839 75.2776 49.0082 76.1543 50.6572 76.1543H62.6553C61.4759 80.662 57.3712 83.997 52.498 83.9971H10.5C4.70885 83.9971 3.30823e-05 79.2882 0 73.4971V10.5C0 4.70883 4.70883 0 10.5 0H35.0264Z" fill="#CDE4F2"/>
<path d="M59.9261 20.5394L42.4378 3.06743C41.4824 2.11201 40.3647 1.36138 39.1484 0.841797V20.0442C39.1484 22.2769 40.9584 24.0868 43.1911 24.0868H62.2546C61.7333 22.7697 60.9465 21.5598 59.9261 20.5394Z" fill="#0578BE"/>
<path d="M38.6538 34.6453L42.7132 38.705H16.5464C15.6894 38.705 15 39.3946 15 40.2516C15 41.1087 15.6894 41.7982 16.5464 41.7982H42.7132L38.6538 45.8579C38.0481 46.4637 38.0481 47.4432 38.6538 48.0425C39.2595 48.6418 40.2389 48.6482 40.8381 48.0425L47.5457 41.3471C48.1514 40.7414 48.1514 39.7619 47.5457 39.1626L40.8446 32.4543C40.2389 31.8486 39.2595 31.8486 38.6603 32.4543C38.061 33.06 38.0546 34.0395 38.6603 34.6388L38.6538 34.6453ZM24.3494 51.1421C24.9551 50.5363 24.9551 49.5568 24.3494 48.9575C23.7437 48.3582 22.7643 48.3518 22.1651 48.9575L15.4575 55.6529C14.8518 56.2586 14.8518 57.2381 15.4575 57.8374L22.1586 64.5457C22.7643 65.1514 23.7437 65.1514 24.343 64.5457C24.9422 63.94 24.9486 62.9605 24.343 62.3612L20.2836 58.3014H46.4504C47.3073 58.3014 47.9968 57.6119 47.9968 56.7548C47.9968 55.8978 47.3073 55.2083 46.4504 55.2083H20.2836L24.343 51.1485L24.3494 51.1421Z" fill="#0578BE"/>
<path d="M48.3201 70.1837C47.8752 71.0182 47.8951 72.0277 48.3732 72.8421C48.8512 73.6564 49.721 74.1544 50.6572 74.1544H79.3404C80.2766 74.1544 81.1397 73.6564 81.6244 72.8421C82.1091 72.0277 82.1224 71.0182 81.6775 70.1837L67.336 43.2639C66.8712 42.3957 65.9748 41.8506 64.9988 41.8506C64.0228 41.8506 63.1264 42.3957 62.6617 43.2639L48.3201 70.1837ZM66.7716 67.6936C66.7864 67.9384 66.7516 68.1837 66.6694 68.4143C66.5871 68.6449 66.4592 68.856 66.2934 69.0347C66.1277 69.2133 65.9276 69.3557 65.7055 69.453C65.4834 69.5503 65.2441 69.6005 65.0021 69.6005C64.7602 69.6005 64.5208 69.5503 64.2987 69.453C64.0767 69.3557 63.8766 69.2133 63.7108 69.0347C63.545 68.856 63.4171 68.6449 63.3349 68.4143C63.2527 68.1837 63.2179 67.9384 63.2327 67.6936C63.2179 67.4489 63.2527 67.2036 63.3349 66.973C63.4171 66.7423 63.545 66.5312 63.7108 66.3526C63.8766 66.174 64.0767 66.0316 64.2987 65.9343C64.5208 65.837 64.7602 65.7868 65.0021 65.7868C65.2441 65.7868 65.4834 65.837 65.7055 65.9343C65.9276 66.0316 66.1277 66.174 66.2934 66.3526C66.4592 66.5312 66.5871 66.7423 66.6694 66.973C66.7516 67.2036 66.7864 67.4489 66.7716 67.6936ZM63.4053 54.7721C63.4053 53.877 64.1157 53.1569 64.9988 53.1569C65.8819 53.1569 66.5923 53.877 66.5923 54.7721V62.3097C66.5923 63.2048 65.8819 63.9249 64.9988 63.9249C64.1157 63.9249 63.4053 63.2048 63.4053 62.3097V54.7721Z" fill="#F7A833"/>
<path d="M66.5919 54.7714C66.5919 53.8764 65.8815 53.1562 64.9984 53.1562C64.1153 53.1562 63.4049 53.8764 63.4049 54.7714V62.309C63.4049 63.2041 64.1153 63.9242 64.9984 63.9242C65.8815 63.9242 66.5919 63.2041 66.5919 62.309V54.7714ZM64.9984 69.4899C65.2399 69.5049 65.4819 69.4696 65.7094 69.3863C65.9369 69.3029 66.1452 69.1732 66.3214 69.0052C66.4977 68.8372 66.6381 68.6344 66.7341 68.4093C66.8301 68.1842 66.8796 67.9416 66.8796 67.6963C66.8796 67.4511 66.8301 67.2085 66.7341 66.9834C66.6381 66.7583 66.4977 66.5555 66.3214 66.3874C66.1452 66.2194 65.9369 66.0898 65.7094 66.0064C65.4819 65.9231 65.2399 65.8878 64.9984 65.9028C64.7569 65.8878 64.515 65.9231 64.2874 66.0064C64.0599 66.0898 63.8516 66.2194 63.6754 66.3874C63.4991 66.5555 63.3587 66.7583 63.2627 66.9834C63.1667 67.2085 63.1172 67.4511 63.1172 67.6963C63.1172 67.9416 63.1667 68.1842 63.2627 68.4093C63.3587 68.6344 63.4991 68.8372 63.6754 69.0052C63.8516 69.1732 64.0599 69.3029 64.2874 69.3863C64.515 69.4696 64.7569 69.5049 64.9984 69.4899Z" fill="white"/>
</svg>
