<svg width="126" height="84" viewBox="0 0 126 84" fill="none" xmlns="http://www.w3.org/2000/svg">
<path d="M50.3867 62.6959C53.329 65.2336 57.671 65.2337 60.6133 62.6959L70.002 54.5959L108.12 82.6271C107.047 83.485 105.691 84 104.214 84H6.78571C5.30848 84 3.95162 83.4855 2.87863 82.6271L40.9965 54.5959L50.3867 62.6959Z" fill="#CDE4F2"/>
<path d="M110.07 20.0322C110.346 20.7436 110.5 21.5162 110.5 22.3256V77.6744C110.5 78.5361 110.327 79.3566 110.017 80.1052L72.4542 52.4802L110.07 20.0322Z" fill="#CDE4F2"/>
<path d="M38.5442 52.4802L0.981864 80.1052C0.671974 79.3567 0.5 78.5359 0.5 77.6744V22.3256C0.5 21.5164 0.652992 20.7435 0.928153 20.0322L38.5442 52.4802Z" fill="#CDE4F2"/>
<path d="M104.218 16C105.744 16 107.142 16.5479 108.231 17.4578L58.5714 60.2945C56.8061 61.8168 54.2014 61.8168 52.4361 60.2945L2.77344 17.4578C3.86244 16.5469 5.26274 16 6.78948 16H104.218Z" fill="#0578BE"/>
<path d="M116.69 21.4656C119.103 12.3903 113.71 3.04893 104.644 0.60152C95.5774 -1.84589 86.2708 3.52731 83.8572 12.6026C81.4436 21.6778 86.8369 31.0193 95.9031 33.4667C97.6473 33.9375 99.4075 34.1225 101.118 34.0438L112.158 53.1653C112.466 53.6987 112.973 54.0858 113.57 54.2469L121.031 56.2612C122.272 56.5961 123.536 55.8665 123.866 54.6247L125.852 47.1554C126.183 45.9136 125.45 44.6451 124.21 44.3103L120.479 43.3031L121.472 39.5684C121.802 38.3266 121.07 37.0582 119.83 36.7233L116.099 35.7162L117.092 31.9815C117.251 31.3839 117.169 30.7515 116.861 30.218L114.582 26.2704C115.505 24.8285 116.225 23.2116 116.69 21.4656ZM93.8047 11.2851C94.0681 10.2946 94.7138 9.45077 95.5998 8.93927C96.4858 8.42776 97.5394 8.29046 98.5289 8.55758C99.5184 8.82469 100.363 9.47434 100.876 10.3636C101.39 11.2529 101.53 12.3089 101.267 13.2994C101.003 14.2899 100.357 15.1337 99.4715 15.6452C98.5855 16.1567 97.5319 16.294 96.5424 16.0269C95.5529 15.7598 94.7086 15.1102 94.1951 14.2209C93.6817 13.3316 93.5413 12.2756 93.8047 11.2851Z" fill="#F7A833"/>
</svg>
