<svg width="90" height="84" viewBox="0 0 90 84" fill="none" xmlns="http://www.w3.org/2000/svg">
<path d="M0.736328 10.503V73.5004C0.736328 79.2916 5.44473 84 11.2359 84H53.2342C59.0254 84 63.7338 79.2916 63.7338 73.5004V27.9749C63.7338 25.186 62.6346 22.5119 60.6659 20.5432L43.1776 3.07126C41.2089 1.10259 38.5512 0.00341797 35.7622 0.00341797H11.2359C5.44473 0.00341797 0.736328 4.71182 0.736328 10.503Z" fill="#CCCCCC"/>
<path d="M60.6664 20.5428L43.178 3.07085C42.2226 2.11543 41.1049 1.3648 39.8887 0.845215V20.0476C39.8887 22.2803 41.6986 24.0903 43.9313 24.0903H62.9948C62.4736 22.7731 61.6868 21.5632 60.6664 20.5428Z" fill="#595959"/>
<path d="M18.4964 55C16.7623 55 15.3672 56.7833 15.3672 59C15.3672 61.2167 16.7623 63 18.4964 63H44.238C45.9721 63 47.3672 61.2167 47.3672 59C47.3672 56.7833 45.9721 55 44.238 55H18.4964Z" fill="#595959"/>
<path d="M18.4964 39C16.7623 39 15.3672 40.7833 15.3672 43C15.3672 45.2167 16.7623 47 18.4964 47H44.238C45.9721 47 47.3672 45.2167 47.3672 43C47.3672 40.7833 45.9721 39 44.238 39H18.4964Z" fill="#595959"/>
<path opacity="0.4" d="M52.75 51.0598C52.75 52.6108 53.0555 54.1466 53.649 55.5796C54.2426 57.0125 55.1126 58.3145 56.2093 59.4113C57.306 60.508 58.608 61.378 60.041 61.9715C61.4739 62.5651 63.0098 62.8706 64.5608 62.8706C66.1118 62.8706 67.6476 62.5651 69.0806 61.9715C70.5135 61.378 71.8155 60.508 72.9122 59.4113C74.009 58.3145 74.879 57.0125 75.4725 55.5796C76.066 54.1466 76.3715 52.6108 76.3715 51.0598C76.3715 49.5088 76.066 47.973 75.4725 46.54C74.879 45.1071 74.009 43.805 72.9122 42.7083C71.8155 41.6116 70.5135 40.7416 69.0806 40.1481C67.6476 39.5545 66.1118 39.249 64.5608 39.249C63.0098 39.249 61.4739 39.5545 60.041 40.1481C58.608 40.7416 57.306 41.6116 56.2093 42.7083C55.1126 43.805 54.2426 45.1071 53.649 46.54C53.0555 47.973 52.75 49.5088 52.75 51.0598Z" fill="#333333"/>
<path d="M81.62 51.06C81.62 54.8247 80.3979 58.3023 78.3392 61.1238L88.7229 71.5156C89.7481 72.5408 89.7481 74.2058 88.7229 75.2311C87.6976 76.2563 86.0326 76.2563 85.0074 75.2311L74.6238 64.8392C71.8023 66.8979 68.3247 68.12 64.56 68.12C55.136 68.12 47.5 60.484 47.5 51.06C47.5 41.636 55.136 34 64.56 34C73.984 34 81.62 41.636 81.62 51.06ZM64.56 62.8708C66.111 62.8708 67.6468 62.5653 69.0798 61.9717C70.5127 61.3782 71.8147 60.5082 72.9115 59.4115C74.0082 58.3147 74.8782 57.0127 75.4717 55.5798C76.0653 54.1468 76.3708 52.611 76.3708 51.06C76.3708 49.509 76.0653 47.9732 75.4717 46.5402C74.8782 45.1073 74.0082 43.8053 72.9115 42.7085C71.8147 41.6118 70.5127 40.7418 69.0798 40.1483C67.6468 39.5547 66.111 39.2492 64.56 39.2492C63.009 39.2492 61.4732 39.5547 60.0402 40.1483C58.6073 40.7418 57.3053 41.6118 56.2085 42.7085C55.1118 43.8053 54.2418 45.1073 53.6483 46.5402C53.0547 47.9732 52.7492 49.509 52.7492 51.06C52.7492 52.611 53.0547 54.1468 53.6483 55.5798C54.2418 57.0127 55.1118 58.3147 56.2085 59.4115C57.3053 60.5082 58.6073 61.3782 60.0402 61.9717C61.4732 62.5653 63.009 62.8708 64.56 62.8708Z" fill="#666666"/>
</svg>
