<svg width="138" height="92" viewBox="0 0 138 92" fill="none" xmlns="http://www.w3.org/2000/svg">
<g opacity="0.5">
<path d="M0.354492 25.9412V85.844C0.354492 84.891 0.608789 83.955 1.10043 83.1041L20.0879 50.4299C21.0543 48.7451 22.8343 47.724 24.767 47.724H81.7295V36.8326C81.7295 30.8253 76.8639 25.9412 70.8795 25.9412H50.9596C48.0775 25.9412 45.3142 24.801 43.2798 22.7589L38.7872 18.2321C36.7529 16.19 33.9895 15.0498 31.1075 15.0498H11.2045C5.22004 15.0498 0.354492 19.9339 0.354492 25.9412Z" fill="#333333"/>
<path d="M44.999 10.4502V68.2002C44.999 73.509 49.3152 77.8252 54.624 77.8252H93.124C98.4328 77.8252 102.749 73.509 102.749 68.2002V24.8877H83.499C80.8371 24.8877 78.6865 22.7371 78.6865 20.0752V0.825195H54.624C49.3152 0.825195 44.999 5.14141 44.999 10.4502Z" fill="#B3B3B3"/>
<path d="M78.6885 0.825195L102.751 24.8877H83.501C80.8391 24.8877 78.6885 22.7371 78.6885 20.0752V0.825195Z" fill="#333333"/>
<path d="M24.6326 46.5498C22.7101 46.5498 20.9393 47.5957 19.9781 49.3214L1.09021 82.7902C0.112083 84.5159 0.112084 86.6426 1.07334 88.3857C2.0346 90.1289 3.80534 91.1748 5.74472 91.1748H73.2014C75.1239 91.1748 76.8947 90.1289 77.8559 88.4032L96.7438 54.9344C97.7219 53.2087 97.7219 51.082 96.7606 49.3389C95.7994 47.5957 94.0286 46.5498 92.0893 46.5498H24.6326Z" fill="#4D4D4D"/>
<path opacity="0.4" d="M89.7256 46.9551C89.7256 51.3371 91.4663 55.5396 94.5649 58.6382C97.6635 61.7367 101.866 63.4775 106.248 63.4775C110.63 63.4775 114.833 61.7367 117.931 58.6382C121.03 55.5396 122.77 51.3371 122.77 46.9551C122.77 42.573 121.03 38.3705 117.931 35.2719C114.833 32.1734 110.63 30.4326 106.248 30.4326C101.866 30.4326 97.6635 32.1734 94.5649 35.2719C91.4663 38.3705 89.7256 42.573 89.7256 46.9551Z" fill="#333333"/>
<path d="M122.77 46.9548C122.77 42.5727 121.029 38.3702 117.931 35.2716C114.832 32.1731 110.63 30.4323 106.248 30.4323C101.866 30.4323 97.6632 32.1731 94.5646 35.2716C91.466 38.3702 89.7253 42.5727 89.7253 46.9548C89.7253 51.3368 91.466 55.5393 94.5646 58.6379C97.6632 61.7364 101.866 63.4772 106.248 63.4772C110.63 63.4772 114.832 61.7364 117.931 58.6379C121.029 55.5393 122.77 51.3368 122.77 46.9548ZM119.579 63.7973C115.924 66.6991 111.287 68.4339 106.248 68.4339C94.3825 68.4339 84.7686 58.8199 84.7686 46.9548C84.7686 35.0896 94.3825 25.4756 106.248 25.4756C118.113 25.4756 127.727 35.0896 127.727 46.9548C127.727 51.9941 125.992 56.6307 123.09 60.2863L136.917 74.1135C137.888 75.0842 137.888 76.6538 136.917 77.6142C135.947 78.5746 134.377 78.5849 133.417 77.6142L119.579 63.7973Z" fill="#333333"/>
<path d="M99.2075 39.9145C98.3475 40.7745 98.3475 42.1652 99.2075 43.016L103.508 47.316L99.2075 51.616C98.3475 52.476 98.3475 53.8667 99.2075 54.7175C100.068 55.5684 101.458 55.5775 102.309 54.7175L106.609 50.4175L110.909 54.7175C111.769 55.5775 113.16 55.5775 114.01 54.7175C114.861 53.8575 114.87 52.4669 114.01 51.616L109.71 47.316L114.01 43.016C114.87 42.156 114.87 40.7654 114.01 39.9145C113.15 39.0637 111.76 39.0545 110.909 39.9145L106.609 44.2145L102.309 39.9145C101.449 39.0545 100.058 39.0545 99.2075 39.9145Z" fill="#333333"/>
</g>
</svg>
