<svg width="92" height="102" viewBox="0 0 92 102" fill="none" xmlns="http://www.w3.org/2000/svg">
<g opacity="0.7">
<path d="M0 11.4824C0 5.69102 4.70859 0.982422 10.5 0.982422H36.75V21.9824C36.75 24.8863 39.0961 27.2324 42 27.2324H63V74.4824C63 80.2738 58.2914 84.9824 52.5 84.9824H10.5C4.70859 84.9824 0 80.2738 0 74.4824V11.4824ZM15.75 45.6074C15.75 47.0512 16.9312 48.2324 18.375 48.2324H44.625C46.0688 48.2324 47.25 47.0512 47.25 45.6074C47.25 44.1637 46.0688 42.9824 44.625 42.9824H18.375C16.9312 42.9824 15.75 44.1637 15.75 45.6074ZM15.75 56.1074C15.75 57.5512 16.9312 58.7324 18.375 58.7324H44.625C46.0688 58.7324 47.25 57.5512 47.25 56.1074C47.25 54.6637 46.0688 53.4824 44.625 53.4824H18.375C16.9312 53.4824 15.75 54.6637 15.75 56.1074ZM15.75 66.6074C15.75 68.0512 16.9312 69.2324 18.375 69.2324H44.625C46.0688 69.2324 47.25 68.0512 47.25 66.6074C47.25 65.1637 46.0688 63.9824 44.625 63.9824H18.375C16.9312 63.9824 15.75 65.1637 15.75 66.6074Z" fill="#B3B3B3"/>
<path d="M63 27.2324L36.75 0.982422V21.9824C36.75 24.8863 39.0961 27.2324 42 27.2324H63ZM18.375 42.9824C16.9312 42.9824 15.75 44.1637 15.75 45.6074C15.75 47.0512 16.9312 48.2324 18.375 48.2324H44.625C46.0688 48.2324 47.25 47.0512 47.25 45.6074C47.25 44.1637 46.0688 42.9824 44.625 42.9824H18.375ZM18.375 53.4824C16.9312 53.4824 15.75 54.6637 15.75 56.1074C15.75 57.5512 16.9312 58.7324 18.375 58.7324H44.625C46.0688 58.7324 47.25 57.5512 47.25 56.1074C47.25 54.6637 46.0688 53.4824 44.625 53.4824H18.375ZM18.375 63.9824C16.9312 63.9824 15.75 65.1637 15.75 66.6074C15.75 68.0512 16.9312 69.2324 18.375 69.2324H44.625C46.0688 69.2324 47.25 68.0512 47.25 66.6074C47.25 65.1637 46.0688 63.9824 44.625 63.9824H18.375Z" fill="#333333"/>
<path opacity="0.4" d="M47.6094 71.9459C47.6094 76.0051 49.2219 79.8981 52.0922 82.7684C54.9625 85.6387 58.8554 87.2512 62.9147 87.2512C66.9739 87.2512 70.8668 85.6387 73.7371 82.7684C76.6074 79.8981 78.2199 76.0051 78.2199 71.9459C78.2199 67.8867 76.6074 63.9937 73.7371 61.1234C70.8668 58.2531 66.9739 56.6406 62.9147 56.6406C58.8554 56.6406 54.9625 58.2531 52.0922 61.1234C49.2219 63.9937 47.6094 67.8867 47.6094 71.9459Z" fill="#333333"/>
<path d="M78.2197 71.9457C78.2197 67.8865 76.6072 63.9935 73.7369 61.1232C70.8666 58.2529 66.9736 56.6404 62.9144 56.6404C58.8552 56.6404 54.9623 58.2529 52.092 61.1232C49.2217 63.9935 47.6092 67.8865 47.6092 71.9457C47.6092 76.0049 49.2217 79.8979 52.092 82.7682C54.9623 85.6384 58.8552 87.251 62.9144 87.251C66.9736 87.251 70.8666 85.6384 73.7369 82.7682C76.6072 79.8979 78.2197 76.0049 78.2197 71.9457ZM75.2639 87.5475C71.8776 90.2355 67.5825 91.8425 62.9144 91.8425C51.9233 91.8425 43.0176 82.9368 43.0176 71.9457C43.0176 60.9546 51.9233 52.0488 62.9144 52.0488C73.9055 52.0488 82.8113 60.9546 82.8113 71.9457C82.8113 76.6138 81.2042 80.9088 78.5163 84.2951L91.3249 97.1037C92.224 98.0029 92.224 99.4569 91.3249 100.347C90.4257 101.236 88.9717 101.246 88.082 100.347L75.2639 87.5475Z" fill="#333333"/>
<path d="M56.3924 65.4246C55.5958 66.2213 55.5958 67.5095 56.3924 68.2976L60.3756 72.2809L56.3924 76.2641C55.5958 77.0608 55.5958 78.349 56.3924 79.1371C57.1891 79.9253 58.4772 79.9338 59.2654 79.1371L63.2487 75.1539L67.2319 79.1371C68.0285 79.9338 69.3167 79.9338 70.1049 79.1371C70.8931 78.3405 70.9015 77.0523 70.1049 76.2641L66.1217 72.2809L70.1049 68.2976C70.9015 67.501 70.9015 66.2128 70.1049 65.4246C69.3083 64.6365 68.0201 64.628 67.2319 65.4246L63.2487 69.4079L59.2654 65.4246C58.4688 64.628 57.1806 64.628 56.3924 65.4246Z" fill="#333333"/>
</g>
</svg>
