<svg width="125" height="94" viewBox="0 0 125 94" fill="none" xmlns="http://www.w3.org/2000/svg">
<path d="M90.0596 52.5931C85.9141 55.4094 82.6162 59.359 80.624 63.9915H11.5459V11.4271H90.0596V52.5931Z" fill="#CDE4F2"/>
<path d="M34.6383 23.9968C33.361 23.9968 32.3291 25.0181 32.3291 26.2822C32.3291 27.5464 33.361 28.5677 34.6383 28.5677H40.8949C41.7825 30.5888 43.8176 31.9958 46.1845 31.9958C48.5515 31.9958 50.5865 30.5888 51.4741 28.5677H66.9677C68.2449 28.5677 69.2769 27.5464 69.2769 26.2822C69.2769 25.0181 68.2449 23.9968 66.9677 23.9968H51.4741C50.5865 21.9757 48.5515 20.5687 46.1845 20.5687C43.8176 20.5687 41.7825 21.9757 40.8949 23.9968H34.6383ZM34.6383 35.4239C33.361 35.4239 32.3291 36.4452 32.3291 37.7093C32.3291 38.9734 33.361 39.9947 34.6383 39.9947H52.4411C53.3287 42.0159 55.3637 43.4228 57.7307 43.4228C60.0977 43.4228 62.1327 42.0159 63.0203 39.9947H66.9677C68.2449 39.9947 69.2769 38.9734 69.2769 37.7093C69.2769 36.4452 68.2449 35.4239 66.9677 35.4239H63.0203C62.1327 33.4027 60.0977 31.9958 57.7307 31.9958C55.3637 31.9958 53.3287 33.4027 52.4411 35.4239H34.6383ZM34.6383 46.851C33.361 46.851 32.3291 47.8722 32.3291 49.1364C32.3291 50.4005 33.361 51.4218 34.6383 51.4218H38.5857C39.4733 53.4429 41.5083 54.8499 43.8753 54.8499C46.2423 54.8499 48.2773 53.4429 49.1649 51.4218H66.9677C68.2449 51.4218 69.2769 50.4005 69.2769 49.1364C69.2769 47.8722 68.2449 46.851 66.9677 46.851H49.1649C48.2773 44.8298 46.2423 43.4228 43.8753 43.4228C41.5083 43.4228 39.4733 44.8298 38.5857 46.851H34.6383Z" fill="#F7A833"/>
<path d="M83.1328 73.2821C83.1328 78.7768 85.3383 84.0464 89.2642 87.9318C93.19 91.8171 98.5146 93.9999 104.067 93.9999C109.619 93.9999 114.943 91.8171 118.869 87.9318C122.795 84.0464 125 78.7768 125 73.2821C125 67.7874 122.795 62.5178 118.869 58.6324C114.943 54.7471 109.619 52.5643 104.067 52.5643C98.5146 52.5643 93.19 54.7471 89.2642 58.6324C85.3383 62.5178 83.1328 67.7874 83.1328 73.2821ZM102.112 62.0735C102.12 62.0087 102.129 61.944 102.145 61.8792C102.169 61.7498 102.21 61.6284 102.259 61.5151C102.358 61.2804 102.505 61.07 102.676 60.9C103.028 60.552 103.519 60.3335 104.067 60.3335C105.154 60.3335 106.029 61.1994 106.029 62.2758V72.2462C108.351 73.7839 110.682 75.3134 113.004 76.8511C113.904 77.4499 114.149 78.6477 113.552 79.546C112.955 80.4443 111.729 80.679 110.829 80.0882C108.212 78.3644 105.596 76.6326 102.979 74.9088C102.709 74.7307 102.488 74.4879 102.341 74.2128C102.268 74.0752 102.21 73.9295 102.169 73.7758C102.153 73.6948 102.137 73.622 102.129 73.5411C102.12 73.5006 102.12 73.4601 102.12 73.4197C102.12 73.3792 102.12 73.3468 102.12 73.2983C102.12 69.6322 102.12 65.9581 102.12 62.2677C102.12 62.2191 102.12 62.1544 102.129 62.0897L102.112 62.0735Z" fill="#F7A833"/>
<path d="M83.1328 73.2821C83.1328 78.7768 85.3383 84.0464 89.2642 87.9318C93.19 91.8171 98.5146 93.9999 104.067 93.9999C109.619 93.9999 114.943 91.8171 118.869 87.9318C122.795 84.0464 125 78.7768 125 73.2821C125 67.7874 122.795 62.5178 118.869 58.6324C114.943 54.7471 109.619 52.5643 104.067 52.5643C98.5146 52.5643 93.19 54.7471 89.2642 58.6324C85.3383 62.5178 83.1328 67.7874 83.1328 73.2821ZM102.112 62.0735C102.12 62.0087 102.129 61.944 102.145 61.8792C102.169 61.7498 102.21 61.6284 102.259 61.5151C102.358 61.2804 102.505 61.07 102.676 60.9C103.028 60.552 103.519 60.3335 104.067 60.3335C105.154 60.3335 106.029 61.1994 106.029 62.2758V72.2462C108.351 73.7839 110.682 75.3134 113.004 76.8511C113.904 77.4499 114.149 78.6477 113.552 79.546C112.955 80.4443 111.729 80.679 110.829 80.0882C108.212 78.3644 105.596 76.6326 102.979 74.9088C102.709 74.7307 102.488 74.4879 102.341 74.2128C102.268 74.0752 102.21 73.9295 102.169 73.7758C102.153 73.6948 102.137 73.622 102.129 73.5411C102.12 73.5006 102.12 73.4601 102.12 73.4197C102.12 73.3792 102.12 73.3468 102.12 73.2983C102.12 69.6322 102.12 65.9581 102.12 62.2677C102.12 62.2191 102.12 62.1544 102.129 62.0897L102.112 62.0735Z" fill="#F7A833"/>
<path d="M104.066 60.3336C102.978 60.3336 102.104 61.1995 102.104 62.2758V73.2822C102.104 73.9296 102.431 74.5366 102.978 74.9007L110.829 80.0802C111.728 80.679 112.947 80.4363 113.552 79.5379C114.157 78.6396 113.911 77.4419 113.004 76.843L106.029 72.2463V62.2758C106.029 61.1995 105.154 60.3336 104.066 60.3336Z" fill="white"/>
<path d="M88.9053 0C95.9104 0 101.606 5.60236 101.606 12.4932V48.2158C96.8657 48.827 92.5186 50.6761 88.9053 53.4238V12.4932H12.7012V62.4678H81.3398C79.5326 66.0182 78.5137 70.0296 78.5137 74.2764C78.5137 74.5056 78.5166 74.7341 78.5225 74.9619H60.3291L63.5039 84.332H77.792C79.0966 84.332 80.2754 84.8422 81.1338 85.6719C81.5334 86.4925 81.9755 87.289 82.4561 88.0596C82.5207 88.3684 82.5556 88.6884 82.5557 89.0166C82.5557 91.6129 80.4314 93.7021 77.792 93.7021H23.8145C21.1751 93.7021 19.0508 91.6129 19.0508 89.0166C19.0509 86.4204 21.1751 84.332 23.8145 84.332H38.1025L41.2773 74.9619H12.7012C5.69589 74.9619 0 69.3588 0 62.4678V12.4932C0.00023384 5.60236 5.69603 0 12.7012 0H88.9053Z" fill="#0578BE"/>
</svg>
