<svg width="84" height="79" viewBox="0 0 84 79" fill="none" xmlns="http://www.w3.org/2000/svg">
<path d="M0.222656 9.87802V69.1256C0.222656 74.5721 4.6508 79.0002 10.0973 79.0002H49.5956C55.0421 79.0002 59.4702 74.5721 59.4702 69.1256V26.31C59.4702 23.687 58.4365 21.1721 56.585 19.3206L40.1376 2.88865C38.2861 1.03716 35.7866 0.00341797 33.1637 0.00341797H10.0973C4.6508 0.00341797 0.222656 4.43156 0.222656 9.87802Z" fill="#CCCCCC"/>
<path d="M36.6168 33.4481L40.3192 37.1505H16.4534C15.6718 37.1505 15.043 37.7793 15.043 38.5609C15.043 39.3425 15.6718 39.9714 16.4534 39.9714H40.3192L36.6168 43.6738C36.0644 44.2262 36.0644 45.1195 36.6168 45.666C37.1692 46.2126 38.0625 46.2184 38.6091 45.666L44.7268 39.56C45.2793 39.0076 45.2793 38.1143 44.7268 37.5677L38.6149 31.45C38.0625 30.8975 37.1692 30.8975 36.6227 31.45C36.0761 32.0024 36.0703 32.8957 36.6227 33.4422L36.6168 33.4481ZM23.5702 48.4928C24.1227 47.9403 24.1227 47.0471 23.5702 46.5005C23.0178 45.954 22.1245 45.9481 21.578 46.5005L15.4602 52.6065C14.9078 53.159 14.9078 54.0522 15.4602 54.5988L21.5721 60.7166C22.1245 61.269 23.0178 61.269 23.5644 60.7166C24.1109 60.1641 24.1168 59.2709 23.5644 58.7243L19.862 55.0219H43.7278C44.5094 55.0219 45.1382 54.3931 45.1382 53.6115C45.1382 52.8299 44.5094 52.201 43.7278 52.201H19.862L23.5644 48.4986L23.5702 48.4928Z" fill="#595959"/>
<path d="M56.5878 19.32L40.1404 2.88808C39.2419 1.98953 38.1907 1.28358 37.0469 0.794922V18.8543C37.0469 20.9541 38.7491 22.6563 40.8489 22.6563H58.7776C58.2874 21.4176 57.5475 20.2797 56.5878 19.32Z" fill="#595959"/>
<path opacity="0.4" d="M49.1406 48.0203C49.1406 49.479 49.4279 50.9234 49.9862 52.2711C50.5444 53.6188 51.3626 54.8433 52.394 55.8747C53.4255 56.9062 54.65 57.7244 55.9976 58.2826C57.3453 58.8408 58.7897 59.1281 60.2484 59.1281C61.7071 59.1281 63.1515 58.8408 64.4991 58.2826C65.8468 57.7244 67.0713 56.9062 68.1027 55.8747C69.1342 54.8433 69.9524 53.6188 70.5106 52.2711C71.0688 50.9234 71.3561 49.479 71.3561 48.0203C71.3561 46.5617 71.0688 45.1172 70.5106 43.7696C69.9524 42.4219 69.1342 41.1974 68.1027 40.166C67.0713 39.1345 65.8468 38.3163 64.4991 37.7581C63.1515 37.1999 61.7071 36.9126 60.2484 36.9126C58.7897 36.9126 57.3453 37.1999 55.9976 37.7581C54.65 38.3163 53.4255 39.1345 52.394 40.166C51.3626 41.1974 50.5444 42.4219 49.9862 43.7696C49.4279 45.1172 49.1406 46.5617 49.1406 48.0203Z" fill="#595959"/>
<path d="M76.2922 48.0206C76.2922 51.5612 75.1428 54.8318 73.2067 57.4853L82.9722 67.2586C83.9365 68.2228 83.9365 69.7887 82.9722 70.7529C82.008 71.7171 80.4422 71.7171 79.4779 70.7529L69.7124 60.9796C67.0589 62.9158 63.7882 64.0651 60.2476 64.0651C51.3846 64.0651 44.2031 56.8837 44.2031 48.0206C44.2031 39.1575 51.3846 31.9761 60.2476 31.9761C69.1107 31.9761 76.2922 39.1575 76.2922 48.0206ZM60.2476 59.1283C61.7063 59.1283 63.1507 58.841 64.4984 58.2828C65.8461 57.7246 67.0706 56.9064 68.102 55.875C69.1335 54.8435 69.9517 53.619 70.5099 52.2713C71.0681 50.9237 71.3554 49.4793 71.3554 48.0206C71.3554 46.5619 71.0681 45.1175 70.5099 43.7698C69.9517 42.4222 69.1335 41.1977 68.102 40.1662C67.0706 39.1348 65.8461 38.3166 64.4984 37.7584C63.1507 37.2002 61.7063 36.9129 60.2476 36.9129C58.789 36.9129 57.3446 37.2002 55.9969 37.7584C54.6492 38.3166 53.4247 39.1348 52.3933 40.1662C51.3618 41.1977 50.5436 42.4222 49.9854 43.7698C49.4272 45.1175 49.1399 46.5619 49.1399 48.0206C49.1399 49.4793 49.4272 50.9237 49.9854 52.2713C50.5436 53.619 51.3618 54.8435 52.3933 55.875C53.4247 56.9064 54.6492 57.7246 55.9969 58.2828C57.3446 58.841 58.789 59.1283 60.2476 59.1283Z" fill="#595959"/>
</svg>
