<svg width="85" height="85" viewBox="0 0 85 85" fill="none" xmlns="http://www.w3.org/2000/svg">
<path d="M0.984375 11.3565V74.3539C0.984375 80.1451 5.69278 84.8535 11.4839 84.8535H53.4822C59.2734 84.8535 63.9818 80.1451 63.9818 74.3539V28.8285C63.9818 26.0395 62.8826 23.3654 60.914 21.3967L43.4256 3.92478C41.4569 1.95611 38.7992 0.856934 36.0103 0.856934H11.4839C5.69278 0.856934 0.984375 5.56534 0.984375 11.3565ZM11.4839 15.2938C11.4839 13.1119 13.2393 11.3565 15.4213 11.3565H23.296C25.4779 11.3565 27.2333 13.1119 27.2333 15.2938C27.2333 17.4758 25.4779 19.2312 23.296 19.2312H15.4213C13.2393 19.2312 11.4839 17.4758 11.4839 15.2938ZM11.4839 31.0432C11.4839 28.8613 13.2393 27.1059 15.4213 27.1059H23.296C25.4779 27.1059 27.2333 28.8613 27.2333 31.0432C27.2333 33.2251 25.4779 34.9805 23.296 34.9805H15.4213C13.2393 34.9805 11.4839 33.2251 11.4839 31.0432Z" fill="#CDE4F2"/>
<path d="M11.4839 15.2934C11.4839 13.1115 13.2393 11.3561 15.4212 11.3561H23.2959C25.4778 11.3561 27.2332 13.1115 27.2332 15.2934C27.2332 17.4754 25.4778 19.2308 23.2959 19.2308H15.4212C13.2393 19.2308 11.4839 17.4754 11.4839 15.2934ZM11.4839 31.0428C11.4839 28.8608 13.2393 27.1054 15.4212 27.1054H23.2959C25.4778 27.1054 27.2332 28.8608 27.2332 31.0428C27.2332 33.2247 25.4778 34.9801 23.2959 34.9801H15.4212C13.2393 34.9801 11.4839 33.2247 11.4839 31.0428Z" fill="#0578BE"/>
<path d="M60.9139 21.3963L43.4256 3.92436C42.4701 2.96894 41.3524 2.21832 40.1362 1.69873V20.9012C40.1362 23.1338 41.9461 24.9438 44.1788 24.9438H63.2423C62.7211 23.6266 61.9343 22.4167 60.9139 21.3963Z" fill="#0578BE"/>
<path d="M15.4212 11.3564C13.2393 11.3564 11.4839 13.1118 11.4839 15.2938C11.4839 17.4757 13.2393 19.2311 15.4212 19.2311H23.2959C25.4778 19.2311 27.2332 17.4757 27.2332 15.2938C27.2332 13.1118 25.4778 11.3564 23.2959 11.3564H15.4212ZM15.4212 27.1058C13.2393 27.1058 11.4839 28.8612 11.4839 31.0431C11.4839 33.2251 13.2393 34.9805 15.4212 34.9805H23.2959C25.4778 34.9805 27.2332 33.2251 27.2332 31.0431C27.2332 28.8612 25.4778 27.1058 23.2959 27.1058H15.4212Z" fill="#0578BE"/>
<path d="M30.3032 46.0538C30.3032 44.5491 31.5294 43.3179 33.028 43.3179V43.3042C34.5267 43.3042 35.7528 44.5354 35.7528 46.0402V46.5874H36.8428C38.3414 46.5874 39.5676 47.8185 39.5676 49.3233C39.5676 50.8281 38.3414 52.0593 36.8428 52.0593H30.3714C29.4313 52.0593 28.6684 52.8254 28.6684 53.7693C28.6684 54.6037 29.2678 55.3151 30.0853 55.4519L35.7665 56.4095C39.227 56.984 41.7474 59.9799 41.7474 63.4956C41.7474 67.0661 39.1588 70.0209 35.7528 70.5818V71.2247C35.7528 72.7295 34.5267 73.9607 33.028 73.9607C31.5294 73.9607 30.3032 72.7295 30.3032 71.2247V70.6775H27.0335C25.5348 70.6775 24.3087 69.4464 24.3087 67.9416C24.3087 66.4368 25.5348 65.2056 27.0335 65.2056L34.5948 65.2193C35.5349 65.2193 36.2978 64.4532 36.2978 63.5093C36.2978 62.6748 35.6983 61.9635 34.8809 61.8267L29.1997 60.8691C25.7392 60.2946 23.2188 57.2987 23.2188 53.783C23.2188 49.8432 26.3795 46.6421 30.3032 46.601V46.0538Z" fill="#0578BE"/>
<path opacity="0.4" d="M47.2729 59.9133C47.2729 61.4643 47.5784 63.0001 48.172 64.4331C48.7655 65.866 49.6355 67.1681 50.7322 68.2648C51.829 69.3615 53.131 70.2315 54.5639 70.825C55.9969 71.4186 57.5327 71.7241 59.0837 71.7241C60.6347 71.7241 62.1706 71.4186 63.6035 70.825C65.0365 70.2315 66.3385 69.3615 67.4352 68.2648C68.5319 67.1681 69.4019 65.866 69.9954 64.4331C70.589 63.0001 70.8945 61.4643 70.8945 59.9133C70.8945 58.3623 70.589 56.8265 69.9954 55.3935C69.4019 53.9606 68.5319 52.6586 67.4352 51.5618C66.3385 50.4651 65.0365 49.5951 63.6035 49.0016C62.1706 48.408 60.6347 48.1025 59.0837 48.1025C57.5327 48.1025 55.9969 48.408 54.5639 49.0016C53.131 49.5951 51.829 50.4651 50.7322 51.5618C49.6355 52.6586 48.7655 53.9606 48.172 55.3935C47.5784 56.8265 47.2729 58.3623 47.2729 59.9133Z" fill="#F7A833"/>
<path d="M76.1439 59.9135C76.1439 63.6782 74.9218 67.1558 72.8632 69.9773L83.2468 80.3691C84.272 81.3944 84.272 83.0593 83.2468 84.0846C82.2216 85.1098 80.5566 85.1098 79.5313 84.0846L69.1477 73.6927C66.3262 75.7514 62.8486 76.9735 59.0839 76.9735C49.6599 76.9735 42.0239 69.3375 42.0239 59.9135C42.0239 50.4895 49.6599 42.8535 59.0839 42.8535C68.5079 42.8535 76.1439 50.4895 76.1439 59.9135ZM59.0839 71.7243C60.6349 71.7243 62.1708 71.4188 63.6037 70.8252C65.0367 70.2317 66.3387 69.3617 67.4354 68.265C68.5321 67.1683 69.4021 65.8663 69.9957 64.4333C70.5892 63.0004 70.8947 61.4645 70.8947 59.9135C70.8947 58.3625 70.5892 56.8267 69.9957 55.3937C69.4021 53.9608 68.5321 52.6588 67.4354 51.562C66.3387 50.4653 65.0367 49.5953 63.6037 49.0018C62.1708 48.4082 60.6349 48.1027 59.0839 48.1027C57.5329 48.1027 55.9971 48.4082 54.5641 49.0018C53.1312 49.5953 51.8292 50.4653 50.7325 51.562C49.6357 52.6588 48.7657 53.9608 48.1722 55.3937C47.5787 56.8267 47.2732 58.3625 47.2732 59.9135C47.2732 61.4645 47.5787 63.0004 48.1722 64.4333C48.7657 65.8663 49.6357 67.1683 50.7325 68.265C51.8292 69.3617 53.1312 70.2317 54.5641 70.8252C55.9971 71.4188 57.5329 71.7243 59.0839 71.7243Z" fill="#F7A833"/>
</svg>
