<svg width="112" height="72" viewBox="0 0 112 72" fill="none" xmlns="http://www.w3.org/2000/svg">
<path d="M60.8994 8.32819C62.295 8.32819 63.4369 9.46873 63.4369 10.8627V46.3461C63.4369 47.7401 62.295 48.8806 60.8994 48.8806H44.612H41.8683H29.181H26.4373H10.1499C8.75429 48.8806 7.61242 47.7401 7.61242 46.3461V10.8627C7.61242 9.46873 8.75429 8.32819 10.1499 8.32819H60.8994Z" fill="#0578BE" fill-opacity="0.1"/>
<path d="M83.7367 8.32819L104.387 8.32819V13.3972H83.7367V8.32819Z" fill="#0578BE" fill-opacity="0.1"/>
<path d="M83.7367 21.0008H104.387V26.0699H83.7367V21.0008Z" fill="#0578BE" fill-opacity="0.1"/>
<path fill-rule="evenodd" clip-rule="evenodd" d="M104.387 33.6735V64.0878L83.7367 64.0878V33.6735H104.387ZM96.6708 52.5772C95.957 53.2902 94.9889 53.6907 93.9794 53.6907C92.9699 53.6907 92.0018 53.2902 91.288 52.5772C90.5742 51.8642 90.1732 50.8972 90.1732 49.8889C90.1732 48.8806 90.5742 47.9136 91.288 47.2007C92.0018 46.4877 92.9699 46.0871 93.9794 46.0871C94.9889 46.0871 95.957 46.4877 96.6708 47.2007C97.3846 47.9136 97.7856 48.8806 97.7856 49.8889C97.7856 50.8972 97.3846 51.8642 96.6708 52.5772Z" fill="#0578BE" fill-opacity="0.1"/>
<path fill-rule="evenodd" clip-rule="evenodd" d="M93.9794 53.6907C94.9889 53.6907 95.957 53.2902 96.6708 52.5772C97.3846 51.8642 97.7856 50.8972 97.7856 49.8889C97.7856 48.8806 97.3846 47.9136 96.6708 47.2007C95.957 46.4877 94.9889 46.0871 93.9794 46.0871C92.9699 46.0871 92.0018 46.4877 91.288 47.2007C90.5742 47.9136 90.1732 48.8806 90.1732 49.8889C90.1732 50.8972 90.5742 51.8642 91.288 52.5772C92.0018 53.2902 92.9699 53.6907 93.9794 53.6907Z" fill="#0578BE" fill-opacity="0.1"/>
<path d="M60.8994 8.32819C62.295 8.32819 63.4369 9.46873 63.4369 10.8627V46.3461C63.4369 47.7401 62.295 48.8806 60.8994 48.8806H44.612H41.8683H29.181H26.4373H10.1499C8.75429 48.8806 7.61242 47.7401 7.61242 46.3461V10.8627C7.61242 9.46873 8.75429 8.32819 10.1499 8.32819H60.8994ZM10.1499 56.4842H23.8998L21.3624 64.0878H13.9561C11.8468 64.0878 10.1499 65.7828 10.1499 67.8896C10.1499 69.9964 11.8468 71.6914 13.9561 71.6914H18.8249H24.106H46.9433H52.2244H57.0932C59.2025 71.6914 60.8994 69.9964 60.8994 67.8896C60.8994 65.7828 59.2025 64.0878 57.0932 64.0878H49.6869L47.1495 56.4842H60.8994C66.4977 56.4842 71.0493 51.9379 71.0493 46.3461V10.8627C71.0493 5.27092 66.4977 0.724609 60.8994 0.724609H10.1499C4.5516 0.724609 0 5.27092 0 10.8627V46.3461C0 51.9379 4.5516 56.4842 10.1499 56.4842ZM29.3871 64.0878L31.9246 56.4842H39.1247L41.6622 64.0878H29.3871ZM83.7367 8.32819L104.387 8.32819V13.3972H83.7367V8.32819ZM83.7367 21.0008H104.387V26.0699H83.7367V21.0008ZM104.387 33.6735V64.0878L83.7367 64.0878V33.6735H104.387ZM76.1242 8.32819V64.0878C76.1242 68.2856 79.534 71.6914 83.7367 71.6914L104.387 71.6914C108.59 71.6914 112 68.2856 112 64.0878V8.32819C112 4.13038 108.59 0.724609 104.387 0.724609H83.7367C79.534 0.724609 76.1242 4.13038 76.1242 8.32819ZM93.9794 53.6907C94.9889 53.6907 95.957 53.2902 96.6708 52.5772C97.3846 51.8642 97.7856 50.8972 97.7856 49.8889C97.7856 48.8806 97.3846 47.9136 96.6708 47.2007C95.957 46.4877 94.9889 46.0871 93.9794 46.0871C92.9699 46.0871 92.0018 46.4877 91.288 47.2007C90.5742 47.9136 90.1732 48.8806 90.1732 49.8889C90.1732 50.8972 90.5742 51.8642 91.288 52.5772C92.0018 53.2902 92.9699 53.6907 93.9794 53.6907Z" fill="#0578BE"/>
<path d="M52.4824 36.5492H54.2525L50.502 32.9857V38.4192L51.7377 36.9109C51.9254 36.6815 52.1977 36.5492 52.4824 36.5492ZM49.5117 39.9452V31.7684C49.5117 31.4862 49.7263 31.2568 49.9903 31.2568C50.1079 31.2568 50.2214 31.3031 50.308 31.3869L55.9606 36.7587C56.0576 36.8513 56.1133 36.9836 56.1133 37.1226C56.1133 37.3916 55.909 37.6099 55.6574 37.6099H53.0291L54.2483 40.406C54.3639 40.6707 54.2566 40.986 54.009 41.1095C53.7615 41.233 53.4665 41.1183 53.3509 40.8537L52.1255 38.0421L50.308 40.2649C50.2214 40.3708 50.0976 40.4303 49.9656 40.4303C49.7139 40.4303 49.5117 40.212 49.5117 39.9452Z" fill="#0578BE"/>
<path d="M52.4824 36.5492H54.2525L50.502 32.9857V38.4192L51.7377 36.9109C51.9254 36.6815 52.1977 36.5492 52.4824 36.5492Z" fill="#0578BE"/>
<path d="M20.193 11.4521H23.1055L10.7275 23.8301V20.9176L20.193 11.4521Z" fill="white"/>
<path d="M27.703 11.4521H30.5322L10.7275 31.2568V28.4276L27.703 11.4521Z" fill="white"/>
</svg>
