<svg width="186" height="75" viewBox="0 0 186 75" fill="none" xmlns="http://www.w3.org/2000/svg">
<path d="M33.12 0.793945V14.3219C33.12 18.7402 36.7018 22.3219 41.12 22.3219H55.3656L33.12 0.793945Z" fill="#0578BE" fill-opacity="0.1"/>
<path d="M0.828125 63.1186C0.828125 67.5368 4.40984 71.1186 8.82812 71.1186H47.3656C51.7839 71.1186 55.3656 67.5368 55.3656 63.1186V22.3219H41.12C36.7018 22.3219 33.12 18.7402 33.12 14.3219V0.793945H8.82812C4.40985 0.793945 0.828125 4.37566 0.828125 8.79394V63.1186Z" fill="#0578BE" fill-opacity="0.1"/>
<path fill-rule="evenodd" clip-rule="evenodd" d="M0.828125 63.1182V8.79395C0.828125 4.51389 4.18927 1.01918 8.41602 0.804688L8.82812 0.793945H33.1201L55.3652 22.3223V63.1182L55.3555 63.5303C55.1481 67.6208 51.8679 70.901 47.7773 71.1084L47.3652 71.1182H8.82812L8.41602 71.1084C4.32562 70.9008 1.04623 67.6207 0.838867 63.5303L0.828125 63.1182ZM51.3652 63.1182C51.3652 65.3273 49.5744 67.1182 47.3652 67.1182H8.82812C6.61899 67.1182 4.82812 65.3273 4.82812 63.1182V8.79395C4.82812 6.58481 6.61898 4.79395 8.82812 4.79395H31.1201V14.3223C31.1203 19.8449 35.5974 24.3223 41.1201 24.3223H51.3652V63.1182ZM41.1201 20.3223C37.8065 20.3223 35.1203 17.6358 35.1201 14.3223V8.29492L47.5479 20.3223H41.1201Z" fill="#0578BE"/>
<path d="M38.8218 47.912C39.4836 47.912 40.0298 47.9909 40.4605 48.1488C40.8947 48.3066 41.2168 48.5468 41.4269 48.8694C41.6405 49.1919 41.7473 49.602 41.7473 50.0996C41.7473 50.4701 41.6773 50.7858 41.5372 51.0466C41.3972 51.3074 41.2133 51.5236 40.9857 51.6952C40.7581 51.8667 40.5148 52.004 40.2557 52.1069L42.4354 55.4371H41.012L39.1579 52.4209H37.9236V55.4371H36.6631V47.912H38.8218ZM38.7378 48.9414H37.9236V51.4018H38.7955C39.3803 51.4018 39.804 51.2954 40.0666 51.0827C40.3327 50.8699 40.4658 50.5559 40.4658 50.1407C40.4658 49.7049 40.324 49.3961 40.0403 49.2142C39.7602 49.0324 39.326 48.9414 38.7378 48.9414Z" fill="#0578BE"/>
<path d="M45.2454 56.0497V54.9893C44.8112 54.9825 44.4103 54.9447 44.0426 54.8761C43.6784 54.804 43.3633 54.7114 43.0972 54.5982V53.5018C43.3668 53.6253 43.6994 53.7369 44.0951 53.8364C44.4908 53.9359 44.8742 53.9925 45.2454 54.0062V52.0761C44.7377 51.9079 44.3245 51.7329 44.0058 51.551C43.6907 51.3692 43.4596 51.1581 43.3125 50.9179C43.1655 50.6743 43.0919 50.3826 43.0919 50.0429C43.0919 49.6929 43.1812 49.3927 43.3598 49.1422C43.5419 48.8883 43.794 48.6875 44.1161 48.54C44.4418 48.3924 44.8182 48.3049 45.2454 48.2775V47.4385H45.9282V48.262C46.3168 48.2723 46.6758 48.3152 47.0049 48.3907C47.3376 48.4628 47.6544 48.564 47.9556 48.6944L47.5722 49.6517C47.3095 49.5488 47.0364 49.4647 46.7528 49.3995C46.4692 49.3343 46.1943 49.2897 45.9282 49.2657V51.1496C46.3554 51.2868 46.7353 51.4344 47.0679 51.5922C47.4041 51.7501 47.6667 51.9491 47.8558 52.1893C48.0484 52.4261 48.1447 52.7366 48.1447 53.1209C48.1447 53.6253 47.9556 54.0423 47.5774 54.3717C47.1992 54.6977 46.6495 54.8933 45.9282 54.9585V56.0497H45.2454ZM45.9282 53.9651C46.2643 53.9239 46.5147 53.8381 46.6793 53.7077C46.8438 53.5739 46.9261 53.4006 46.9261 53.1878C46.9261 53.0437 46.8911 52.9219 46.8211 52.8224C46.7545 52.7229 46.6477 52.6337 46.5007 52.5547C46.3571 52.4758 46.1663 52.3986 45.9282 52.3231V53.9651ZM45.2454 50.8974V49.2863C45.0423 49.3069 44.8707 49.3481 44.7306 49.4098C44.5906 49.4716 44.4855 49.5522 44.4155 49.6517C44.3455 49.7513 44.3105 49.8696 44.3105 50.0069C44.3105 50.1579 44.342 50.2866 44.405 50.3929C44.468 50.4993 44.5678 50.592 44.7044 50.6709C44.8444 50.7498 45.0248 50.8253 45.2454 50.8974Z" fill="#0578BE"/>
<rect x="7.28613" y="29.499" width="40.9031" height="3.58799" rx="1.794" fill="#0578BE"/>
<rect x="7.28613" y="39.5449" width="40.9031" height="3.58799" rx="1.794" fill="#0578BE"/>
<rect x="7.26367" y="49.5908" width="25.8335" height="3.58799" rx="1.794" fill="#0578BE"/>
<circle opacity="0.3" cx="42.9873" cy="49.836" r="14.2119" fill="#0578BE"/>
<path d="M55.695 49.9903C55.695 46.6591 54.372 43.4644 52.0172 41.1089C49.6623 38.7534 46.4685 37.4301 43.1382 37.4301C39.808 37.4301 36.6141 38.7534 34.2593 41.1089C31.9044 43.4644 30.5815 46.6591 30.5815 49.9903C30.5815 53.3214 31.9044 56.5161 34.2593 58.8716C36.6141 61.2271 39.808 62.5504 43.1382 62.5504C46.4685 62.5504 49.6623 61.2271 52.0172 58.8716C54.372 56.5161 55.695 53.3214 55.695 49.9903ZM53.2699 62.7937C50.4918 64.9996 46.968 66.3184 43.1382 66.3184C34.1209 66.3184 26.8145 59.01 26.8145 49.9903C26.8145 40.9705 34.1209 33.6621 43.1382 33.6621C52.1555 33.6621 59.462 40.9705 59.462 49.9903C59.462 53.8211 58.1435 57.3458 55.9382 60.1247L66.4467 70.6359C67.1844 71.3739 67.1844 72.5671 66.4467 73.2971C65.709 74.0272 64.5161 74.035 63.7862 73.2971L53.2699 62.7937Z" fill="#0578BE"/>
<path d="M39.0399 40.2564C40.8918 39.5642 42.8932 39.3713 44.8432 39.697C46.7932 40.0226 48.6233 40.8555 50.1497 42.112L48.9416 43.5797C47.6726 42.5351 46.1512 41.8427 44.5301 41.572C42.9089 41.3012 41.2451 41.4616 39.7055 42.0371L39.0399 40.2564Z" fill="white"/>
<path d="M106.504 38.525C107.165 37.8589 107.165 36.7818 106.504 36.1227L99.7557 29.3199C99.0949 28.6538 98.0264 28.6538 97.3726 29.3199C96.7188 29.986 96.7118 31.0631 97.3726 31.7221L101.239 35.6196H76.761L80.6274 31.7221C81.2882 31.056 81.2882 29.9789 80.6274 29.3199C79.9666 28.6609 78.8981 28.6538 78.2443 29.3199L71.4956 36.1156C70.8348 36.7818 70.8348 37.8589 71.4956 38.5179L78.2443 45.3207C78.9051 45.9868 79.9736 45.9868 80.6274 45.3207C81.2812 44.6546 81.2882 43.5775 80.6274 42.9185L76.761 39.021H101.232L97.3656 42.9185C96.7047 43.5846 96.7047 44.6617 97.3656 45.3207C98.0264 45.9798 99.0949 45.9868 99.7487 45.3207L106.497 38.5179L106.504 38.525Z" fill="#0578BE"/>
<path d="M151.292 0.793945V14.3219C151.292 18.7402 154.874 22.3219 159.292 22.3219H173.537L151.292 0.793945Z" fill="#0578BE" fill-opacity="0.1"/>
<path d="M119 63.1186C119 67.5368 122.582 71.1186 127 71.1186H165.537C169.956 71.1186 173.537 67.5368 173.537 63.1186V22.3219H159.292C154.874 22.3219 151.292 18.7402 151.292 14.3219V0.793945H127C122.582 0.793945 119 4.37566 119 8.79394V63.1186Z" fill="#0578BE" fill-opacity="0.1"/>
<path fill-rule="evenodd" clip-rule="evenodd" d="M119 63.1182V8.79395C119 4.51389 122.361 1.01918 126.588 0.804688L127 0.793945H151.292L173.537 22.3223V63.1182L173.527 63.5303C173.32 67.6208 170.04 70.901 165.949 71.1084L165.537 71.1182H127L126.588 71.1084C122.497 70.9008 119.218 67.6207 119.011 63.5303L119 63.1182ZM169.537 63.1182C169.537 65.3273 167.746 67.1182 165.537 67.1182H127C124.791 67.1182 123 65.3273 123 63.1182V8.79395C123 6.58481 124.791 4.79395 127 4.79395H149.292V14.3223C149.292 19.8449 153.769 24.3223 159.292 24.3223H169.537V63.1182ZM159.292 20.3223C155.978 20.3223 153.292 17.6358 153.292 14.3223V8.29492L165.72 20.3223H159.292Z" fill="#0578BE"/>
<path d="M156.994 47.912C157.655 47.912 158.202 47.9909 158.632 48.1488C159.067 48.3066 159.389 48.5468 159.599 48.8694C159.812 49.1919 159.919 49.602 159.919 50.0996C159.919 50.4701 159.849 50.7858 159.709 51.0466C159.569 51.3074 159.385 51.5236 159.158 51.6952C158.93 51.8667 158.687 52.004 158.428 52.1069L160.607 55.4371H159.184L157.33 52.4209H156.096V55.4371H154.835V47.912H156.994ZM156.91 48.9414H156.096V51.4018H156.967C157.552 51.4018 157.976 51.2954 158.238 51.0827C158.505 50.8699 158.638 50.5559 158.638 50.1407C158.638 49.7049 158.496 49.3961 158.212 49.2142C157.932 49.0324 157.498 48.9414 156.91 48.9414Z" fill="#0578BE"/>
<path d="M163.417 56.0497V54.9893C162.983 54.9825 162.582 54.9447 162.214 54.8761C161.85 54.804 161.535 54.7114 161.269 54.5982V53.5018C161.539 53.6253 161.871 53.7369 162.267 53.8364C162.663 53.9359 163.046 53.9925 163.417 54.0062V52.0761C162.91 51.9079 162.496 51.7329 162.178 51.551C161.863 51.3692 161.631 51.1581 161.484 50.9179C161.337 50.6743 161.264 50.3826 161.264 50.0429C161.264 49.6929 161.353 49.3927 161.532 49.1422C161.714 48.8883 161.966 48.6875 162.288 48.54C162.614 48.3924 162.99 48.3049 163.417 48.2775V47.4385H164.1V48.262C164.489 48.2723 164.848 48.3152 165.177 48.3907C165.509 48.4628 165.826 48.564 166.127 48.6944L165.744 49.6517C165.481 49.5488 165.208 49.4647 164.925 49.3995C164.641 49.3343 164.366 49.2897 164.1 49.2657V51.1496C164.527 51.2868 164.907 51.4344 165.24 51.5922C165.576 51.7501 165.839 51.9491 166.028 52.1893C166.22 52.4261 166.317 52.7366 166.317 53.1209C166.317 53.6253 166.127 54.0423 165.749 54.3717C165.371 54.6977 164.821 54.8933 164.1 54.9585V56.0497H163.417ZM164.1 53.9651C164.436 53.9239 164.687 53.8381 164.851 53.7077C165.016 53.5739 165.098 53.4006 165.098 53.1878C165.098 53.0437 165.063 52.9219 164.993 52.8224C164.926 52.7229 164.82 52.6337 164.673 52.5547C164.529 52.4758 164.338 52.3986 164.1 52.3231V53.9651ZM163.417 50.8974V49.2863C163.214 49.3069 163.043 49.3481 162.903 49.4098C162.762 49.4716 162.657 49.5522 162.587 49.6517C162.517 49.7513 162.482 49.8696 162.482 50.0069C162.482 50.1579 162.514 50.2866 162.577 50.3929C162.64 50.4993 162.74 50.592 162.876 50.6709C163.016 50.7498 163.197 50.8253 163.417 50.8974Z" fill="#0578BE"/>
<rect x="125.458" y="29.499" width="40.9031" height="3.58799" rx="1.794" fill="#0578BE"/>
<rect x="125.458" y="39.5449" width="40.9031" height="3.58799" rx="1.794" fill="#0578BE"/>
<rect x="125.436" y="49.5908" width="25.8335" height="3.58799" rx="1.794" fill="#0578BE"/>
<circle opacity="0.3" cx="161.159" cy="49.836" r="14.2119" fill="#0578BE"/>
<path d="M173.867 49.9903C173.867 46.6591 172.544 43.4644 170.189 41.1089C167.834 38.7534 164.64 37.4301 161.31 37.4301C157.98 37.4301 154.786 38.7534 152.431 41.1089C150.076 43.4644 148.753 46.6591 148.753 49.9903C148.753 53.3214 150.076 56.5161 152.431 58.8716C154.786 61.2271 157.98 62.5504 161.31 62.5504C164.64 62.5504 167.834 61.2271 170.189 58.8716C172.544 56.5161 173.867 53.3214 173.867 49.9903ZM171.442 62.7937C168.664 64.9996 165.14 66.3184 161.31 66.3184C152.293 66.3184 144.986 59.01 144.986 49.9903C144.986 40.9705 152.293 33.6621 161.31 33.6621C170.327 33.6621 177.634 40.9705 177.634 49.9903C177.634 53.8211 176.315 57.3458 174.11 60.1247L184.619 70.6359C185.356 71.3739 185.356 72.5671 184.619 73.2971C183.881 74.0272 182.688 74.035 181.958 73.2971L171.442 62.7937Z" fill="#0578BE"/>
<path d="M157.212 40.2564C159.064 39.5642 161.065 39.3713 163.015 39.697C164.965 40.0226 166.795 40.8555 168.322 42.112L167.113 43.5797C165.844 42.5351 164.323 41.8427 162.702 41.572C161.081 41.3012 159.417 41.4616 157.877 42.0371L157.212 40.2564Z" fill="white"/>
</svg>
